<svg xmlns="http://www.w3.org/2000/svg" xmlns:xlink="http://www.w3.org/1999/xlink" xmlns:lucid="lucid" width="860.17" height="2048"><g transform="translate(-1299.5 947.5031474555393)" lucid:page-tab-id="0_0"><path d="M1000-1000h1500v2500H1000z" fill="#fff"/><path d="M1699.17-907c0 11.04-8.95 20-20 20-11.04 0-20-8.96-20-20 0-11.05 8.96-20 20-20 11.05 0 20 8.95 20 20z" stroke="#666"/><path d="M1480.5-834.98v38.6h-1v-38.64l.1-1.18h1zm180.98-11.52h-83.28v-1h83.28z" stroke="#333" stroke-width=".05" fill="#333"/><path d="M1661.98-847l.05.5h-.56v-1h.56z" fill="#333"/><path d="M1662-847l.05.52h-.6v-1.05h.6zm-.5-.48v.95h.5l-.04-.47.04-.48z" stroke="#333" stroke-width=".05" fill="#333"/><path d="M1480-781.62l-4.63-14.26h9.27z" fill="#333"/><path d="M1480-780l-5.32-16.38h10.64zm-3.95-15.38l3.95 12.14 3.95-12.14z" stroke="#333" stroke-width=".05" fill="#333"/><use xlink:href="#a" transform="matrix(1,0,0,1,1400.4505046797192,-857.8031474557721) translate(0.0049999999999954525 14.4)"/><use xlink:href="#b" transform="matrix(1,0,0,1,1400.4505046797192,-857.8031474557721) translate(44.004999999999995 14.4)"/><use xlink:href="#c" transform="matrix(1,0,0,1,1400.4505046797192,-857.8031474557721) translate(69.005 14.4)"/><use xlink:href="#d" transform="matrix(1,0,0,1,1400.4505046797192,-857.8031474557721) translate(127.955 14.4)"/><path d="M1780.5-576.38h-1v-105.08h1zm-10.54-270.97l1.9.46 1.82.76 1.67 1.02 1.5 1.28 1.26 1.5 1.04 1.66.75 1.8.45 1.92.15 1.94v131.96h-1v-131.92l-.14-1.82-.42-1.76-.7-1.66-.94-1.54-1.17-1.37-1.37-1.18-1.54-.95-1.67-.7-1.75-.4-1.82-.15h-71.12v-1h71.16z" stroke="#333" stroke-width=".05" fill="#333"/><path d="M1696.87-846.5h-.55l.04-.5-.04-.5h.55z" fill="#333"/><path d="M1696.9-846.48h-.6l.04-.52-.04-.53h.6zm-.55-1l.04.48-.05.47h.5v-.95z" stroke="#333" stroke-width=".05" fill="#333"/><path d="M1780-561.62l-4.63-14.26h9.27z" fill="#333"/><path d="M1780-560l-5.32-16.38h10.64zm-3.95-15.38l3.95 12.14 3.95-12.14z" stroke="#333" stroke-width=".05" fill="#333"/><use xlink:href="#e" transform="matrix(1,0,0,1,1628.775,-703.0576224011018) translate(0.0049999999999954525 14.4)"/><use xlink:href="#f" transform="matrix(1,0,0,1,1628.775,-703.0576224011018) translate(44.004999999999995 14.4)"/><use xlink:href="#g" transform="matrix(1,0,0,1,1628.775,-703.0576224011018) translate(69.005 14.4)"/><use xlink:href="#h" transform="matrix(1,0,0,1,1628.775,-703.0576224011018) translate(127.955 14.4)"/><use xlink:href="#i" transform="matrix(1,0,0,1,1628.775,-703.0576224011018) translate(152.95499999999998 14.4)"/><use xlink:href="#j" transform="matrix(1,0,0,1,1628.775,-703.0576224011018) translate(222.20499999999998 14.4)"/><path d="M1416-780c-8.84 0-16 7.16-16 16v48c0 8.84 7.16 16 16 16h128c8.84 0 16-7.16 16-16v-48c0-8.84-7.16-16-16-16z" stroke="#000" stroke-opacity="0" fill="#00b098"/><use xlink:href="#k" transform="matrix(1,0,0,1,1408,-772) translate(34.592592592592595 17.422222222222224)"/><use xlink:href="#l" transform="matrix(1,0,0,1,1408,-772) translate(84.76543209876544 17.422222222222224)"/><use xlink:href="#m" transform="matrix(1,0,0,1,1408,-772) translate(40.27160493827161 38.75555555555556)"/><use xlink:href="#n" transform="matrix(1,0,0,1,1408,-772) translate(32.888888888888886 60.088888888888896)"/><path d="M1716-560c-8.84 0-16 7.16-16 16v48c0 8.84 7.16 16 16 16h128c8.84 0 16-7.16 16-16v-48c0-8.84-7.16-16-16-16z" stroke="#000" stroke-opacity="0" fill="#00b098"/><use xlink:href="#o" transform="matrix(1,0,0,1,1708,-552) translate(30.098765432098762 17.422222222222224)"/><use xlink:href="#p" transform="matrix(1,0,0,1,1708,-552) translate(22.17283950617284 38.75555555555556)"/><use xlink:href="#q" transform="matrix(1,0,0,1,1708,-552) translate(102.07407407407408 38.75555555555556)"/><use xlink:href="#r" transform="matrix(1,0,0,1,1708,-552) translate(28.123456790123452 60.088888888888896)"/><path d="M1673.52-861.35a8 8 0 0 1 11.3 0l8.7 8.7a8 8 0 0 1 0 11.3l-8.7 8.7a8 8 0 0 1-11.3 0l-8.7-8.7a8 8 0 0 1 0-11.3z" stroke="#333" fill="#fff"/><path d="M1679.17-886v5.42" stroke="#333" fill="none"/><path d="M1679.15-886.5l.52-.02v.53h-1v-.56z" stroke="#333" stroke-width=".05" fill="#333"/><path d="M1679.17-865.8l-4.63-14.28h9.27z" stroke="#333" fill="#333"/><path d="M1673.52-341.35a8 8 0 0 1 11.3 0l8.7 8.7a8 8 0 0 1 0 11.3l-8.7 8.7a8 8 0 0 1-11.3 0l-8.7-8.7a8 8 0 0 1 0-11.3z" stroke="#333" fill="#fff"/><path d="M1780-479.5v55.4a12 12 0 0 1-12 12h-76.83a12 12 0 0 0-12 12v39.53" stroke="#333" fill="none"/><path d="M1780.5-479.5h-1v-.5h1z" stroke="#333" stroke-width=".05" fill="#333"/><path d="M1679.17-345.8l-4.63-14.27h9.27z" stroke="#333" fill="#333"/><path d="M1679.67-203.4h-1v-55.83h1zm0-77.43h-1v-28.5h1z" stroke="#333" stroke-width=".05" fill="#333"/><path d="M1679.17-309.8l.5-.06v.56h-1v-.56z" fill="#333"/><path d="M1679.17-309.84l.53-.04v.6h-1.05v-.6zm-.47.5h.95v-.5l-.48.05-.47-.03z" stroke="#333" stroke-width=".05" fill="#333"/><path d="M1679.17-188.62l-4.63-14.27h9.27z" fill="#333"/><path d="M1679.17-187l-5.32-16.4h10.65zm-3.94-15.4l3.94 12.16 3.95-12.15z" stroke="#333" stroke-width=".05" fill="#333"/><use xlink:href="#s" transform="matrix(1,0,0,1,1595.7481628181022,-280.83361833733517) translate(0.0049999999999954525 14.4)"/><use xlink:href="#t" transform="matrix(1,0,0,1,1595.7481628181022,-280.83361833733517) translate(68.905 14.4)"/><use xlink:href="#u" transform="matrix(1,0,0,1,1595.7481628181022,-280.83361833733517) translate(107.905 14.4)"/><path d="M1995.17-687c-8.83 0-16 7.16-16 16v48c0 8.83 7.17 16 16 16h128c8.84 0 16-7.17 16-16v-48c0-8.84-7.16-16-16-16z" stroke="#000" stroke-opacity="0" fill="#00b098"/><use xlink:href="#v" transform="matrix(1,0,0,1,1987.1731628181021,-679.0031474555393) translate(21.753086419753078 17.422222222222224)"/><use xlink:href="#w" transform="matrix(1,0,0,1,1987.1731628181021,-679.0031474555393) translate(17.728395061728403 38.75555555555556)"/><use xlink:href="#x" transform="matrix(1,0,0,1,1987.1731628181021,-679.0031474555393) translate(58.17283950617285 38.75555555555556)"/><use xlink:href="#y" transform="matrix(1,0,0,1,1987.1731628181021,-679.0031474555393) translate(72.98765432098766 38.75555555555556)"/><use xlink:href="#z" transform="matrix(1,0,0,1,1987.1731628181021,-679.0031474555393) translate(40.93827160493828 60.088888888888896)"/><use xlink:href="#A" transform="matrix(1,0,0,1,1987.1731628181021,-679.0031474555393) translate(65.62962962962963 60.088888888888896)"/><path d="M1809.5-326.5h-112.64v-1h112.65zm250.17-12.48l-.15 1.93-.46 1.9-.75 1.82-1 1.68-1.3 1.5-1.48 1.26-1.67 1.04-1.8.75-1.92.44-1.94.16h-35.85v-1h35.8l1.82-.15 1.76-.42 1.66-.7 1.53-.93 1.37-1.17 1.18-1.38.94-1.53.7-1.67.4-1.75.15-1.82v-251.6h1z" stroke="#333" stroke-width=".05" fill="#333"/><path d="M1696.87-326.5h-.55l.04-.5-.04-.5h.55z" fill="#333"/><path d="M1696.9-326.48h-.6l.04-.52-.04-.53h.6zm-.55-1l.04.48-.05.47h.5v-.95z" stroke="#333" stroke-width=".05" fill="#333"/><path d="M2063.8-591.12h-9.26l4.63-14.26z" fill="#333"/><path d="M2064.5-590.62h-10.65l5.32-16.38zm-9.27-1h7.9l-3.96-12.15z" stroke="#333" stroke-width=".05" fill="#333"/><use xlink:href="#s" transform="matrix(1,0,0,1,1809.5050518866892,-337.8031474555393) translate(0.0049999999999954525 14.4)"/><use xlink:href="#B" transform="matrix(1,0,0,1,1809.5050518866892,-337.8031474555393) translate(68.905 14.4)"/><use xlink:href="#t" transform="matrix(1,0,0,1,1809.5050518866892,-337.8031474555393) translate(103.905 14.4)"/><use xlink:href="#u" transform="matrix(1,0,0,1,1809.5050518866892,-337.8031474555393) translate(142.905 14.4)"/><path d="M2049.13-907.35l1.9.46 1.82.76 1.67 1.02 1.5 1.28 1.27 1.5 1 1.66.76 1.8.46 1.92.15 1.94v207.52h-1v-207.48l-.14-1.82-.42-1.76-.68-1.66-.94-1.54-1.18-1.37-1.37-1.18-1.54-.95-1.67-.7-1.76-.4-1.82-.15h-331.1v-1h331.14z" stroke="#333" stroke-width=".05" fill="#333"/><path d="M2059.67-687h-1v-.52h1z" fill="#333"/><path d="M2059.7-686.98h-1.05v-.56h1.05zm-1-.5v.45h.95v-.46z" stroke="#333" stroke-width=".05" fill="#333"/><path d="M1715.56-902.37L1701.3-907l14.26-4.64z" fill="#333"/><path d="M1716.06-901.68l-16.4-5.32 16.4-5.33zM1702.9-907l12.16 3.94v-7.9z" stroke="#333" stroke-width=".05" fill="#333"/><path d="M1456 540c-8.84 0-16 7.16-16 16v48c0 8.84 7.16 16 16 16h128c8.84 0 16-7.16 16-16v-48c0-8.84-7.16-16-16-16z" stroke="#000" stroke-opacity="0" fill="#00b098"/><use xlink:href="#C" transform="matrix(1,0,0,1,1448.0000000000002,548) translate(39.9753086419753 26.488888888888887)"/><use xlink:href="#D" transform="matrix(1,0,0,1,1448.0000000000002,548) translate(34.51851851851852 47.822222222222216)"/><path d="M1514.34 705.66a8 8 0 0 1 11.32 0l8.68 8.68a8 8 0 0 1 0 11.32l-8.68 8.68a8 8 0 0 1-11.32 0l-8.68-8.68a8 8 0 0 1 0-11.32z" stroke="#333" fill="#fff"/><path d="M1520.5 686.43h-1V672.2h1zm0-35.82h-1v-30.1h1z" stroke="#333" stroke-width=".05" fill="#333"/><path d="M1520.5 620.5h-1v-.5h1z" fill="#333"/><path d="M1520.53 620.54h-1.06v-.56h1.06zm-1-.5v.45h.94V620z" stroke="#333" stroke-width=".05" fill="#333"/><path d="M1520 701.2l-4.63-14.27h9.27z" fill="#333"/><path d="M1520 702.8l-5.32-16.37h10.64zm-3.95-15.37l3.95 12.15 3.95-12.15z" stroke="#333" stroke-width=".05" fill="#333"/><use xlink:href="#E" transform="matrix(1,0,0,1,1437.0750000000003,650.6060966486813) translate(0.0049999999999954525 14.4)"/><use xlink:href="#F" transform="matrix(1,0,0,1,1437.0750000000003,650.6060966486813) translate(85.905 14.4)"/><path d="M1776 540c-8.84 0-16 7.16-16 16v48c0 8.84 7.16 16 16 16h128c8.84 0 16-7.16 16-16v-48c0-8.84-7.16-16-16-16z" stroke="#000" stroke-opacity="0" fill="#00b098"/><use xlink:href="#G" transform="matrix(1,0,0,1,1768,548) translate(22.222222222222225 26.488888888888887)"/><use xlink:href="#H" transform="matrix(1,0,0,1,1768,548) translate(59.70370370370371 26.488888888888887)"/><use xlink:href="#I" transform="matrix(1,0,0,1,1768,548) translate(34.51851851851852 47.822222222222216)"/><path d="M1649.1 708.02l-.16 1.94-.46 1.9-.75 1.82-1.02 1.67-1.27 1.5-1.5 1.26-1.66 1.04-1.8.75-1.92.45-1.94.15h-98.9v-1h98.87l1.82-.14 1.75-.42 1.66-.7 1.55-.94 1.38-1.17 1.17-1.37.94-1.54.7-1.67.4-1.75.15-1.82v-28.65h1zm94.52-127.52h-83l-1.82.14-1.76.42-1.67.7-1.53.94-1.38 1.17-1.17 1.37-.95 1.54-.7 1.67-.4 1.75-.16 1.82v65.7h-1V592l.15-1.94.45-1.9.75-1.82 1.03-1.67 1.27-1.5 1.5-1.26 1.67-1.04 1.8-.75 1.92-.45 1.93-.15h83.05z" stroke="#333" stroke-width=".05" fill="#333"/><path d="M1537.7 720.5h-.55l.04-.5-.05-.5h.55z" fill="#333"/><path d="M1537.73 720.52h-.6l.03-.52-.04-.52h.6zm-.55-1l.03.48-.03.48h.5v-.96z" stroke="#333" stroke-width=".05" fill="#333"/><path d="M1758.38 580l-14.26 4.63v-9.26z" fill="#333"/><path d="M1760 580l-16.38 5.32v-10.64zm-15.38 3.95l12.14-3.95-12.14-3.95z" stroke="#333" stroke-width=".05" fill="#333"/><use xlink:href="#J" transform="matrix(1,0,0,1,1619.093903351319,657.7316826215526) translate(0.004999999999999005 14.4)"/><path d="M1336 860c-8.84 0-16 7.16-16 16v48c0 8.84 7.16 16 16 16h128c8.84 0 16-7.16 16-16v-48c0-8.84-7.16-16-16-16z" stroke="#000" stroke-opacity="0" fill="#00b098"/><use xlink:href="#K" transform="matrix(1,0,0,1,1328,868) translate(39.9753086419753 26.488888888888887)"/><use xlink:href="#D" transform="matrix(1,0,0,1,1328,868) translate(34.51851851851852 47.822222222222216)"/><path d="M1440 788a8 8 0 0 1 8-8h144a8 8 0 0 1 8 8v4a8 8 0 0 1-8 8h-144a8 8 0 0 1-8-8z" stroke="#333"/><path d="M1520 737.7v25.42" stroke="#333" fill="none"/><path d="M1520 737.2l.5-.05v.55h-1v-.55z" stroke="#333" stroke-width=".05" fill="#333"/><path d="M1520 777.88l-4.63-14.26h9.27z" stroke="#333" fill="#333"/><path d="M1480 800.5V818a12 12 0 0 1-12 12h-56a12 12 0 0 0-12 12v1.62" stroke="#333" fill="none"/><path d="M1480.5 800.5h-1 1z" stroke="#333" stroke-width=".05" fill="#333"/><path d="M1400 858.38l-4.63-14.26h9.27z" stroke="#333" fill="#333"/><path d="M1576 860c-8.84 0-16 7.16-16 16v48c0 8.84 7.16 16 16 16h188c8.84 0 16-7.16 16-16v-48c0-8.84-7.16-16-16-16z" stroke="#000" stroke-opacity="0" fill="#00b098"/><use xlink:href="#L" transform="matrix(1,0,0,1,1568,868) translate(45.358024691358025 17.422222222222224)"/><use xlink:href="#M" transform="matrix(1,0,0,1,1568,868) translate(110.44444444444446 17.422222222222224)"/><use xlink:href="#N" transform="matrix(1,0,0,1,1568,868) translate(41.777777777777786 38.75555555555556)"/><use xlink:href="#O" transform="matrix(1,0,0,1,1568,868) translate(117.77777777777779 38.75555555555556)"/><use xlink:href="#P" transform="matrix(1,0,0,1,1568,868) translate(152.3456790123457 38.75555555555556)"/><use xlink:href="#Q" transform="matrix(1,0,0,1,1568,868) translate(12.246913580246922 60.088888888888896)"/><use xlink:href="#R" transform="matrix(1,0,0,1,1568,868) translate(92.14814814814817 60.088888888888896)"/><use xlink:href="#S" transform="matrix(1,0,0,1,1568,868) translate(115.80246913580248 60.088888888888896)"/><path d="M1560 800.5V818a12 12 0 0 0 12 12h86a12 12 0 0 1 12 12v1.62" stroke="#333" fill="none"/><path d="M1560.5 800.5h-1 1z" stroke="#333" stroke-width=".05" fill="#333"/><path d="M1670 858.38l-4.63-14.26h9.27z" stroke="#333" fill="#333"/><path d="M1440 1028a8 8 0 0 1 8-8h144a8 8 0 0 1 8 8v4a8 8 0 0 1-8 8h-144a8 8 0 0 1-8-8z" stroke="#333"/><path d="M1400 940.5v27.25a12 12 0 0 0 12 12h55.5a12 12 0 0 1 12 12v11.37" stroke="#333" fill="none"/><path d="M1400.5 940.5h-1v-.5h1z" stroke="#333" stroke-width=".05" fill="#333"/><path d="M1479.5 1017.88l-4.63-14.26h9.27z" stroke="#333" fill="#333"/><path d="M1670 940.5v27.25a12 12 0 0 1-12 12h-86a12 12 0 0 0-12 12v11.87" stroke="#333" fill="none"/><path d="M1670.5 940.5h-1v-.5h1z" stroke="#333" stroke-width=".05" fill="#333"/><path d="M1560 1018.38l-4.63-14.26h9.27z" stroke="#333" fill="#333"/><path d="M1520 1041v7a12 12 0 0 0 12 12h271.12" stroke="#333" fill="none"/><path d="M1520.5 1041h-1v-.5h1z" stroke="#333" stroke-width=".05" fill="#333"/><path d="M1817.88 1060l-14.26 4.63v-9.27z" stroke="#333" fill="#333"/><path d="M1860 1060c0 11.05-8.95 20-20 20s-20-8.95-20-20 8.95-20 20-20 20 8.95 20 20z" stroke="#333" fill="#fff"/><path d="M1852 1060c0 6.63-5.37 12-12 12s-12-5.37-12-12 5.37-12 12-12 12 5.37 12 12z" stroke="#333"/><path d="M1840 620.5v402.62" stroke="#333" fill="none"/><path d="M1840.5 620.5h-1v-.5h1z" stroke="#333" stroke-width=".05" fill="#333"/><path d="M1840 1037.88l-4.63-14.26h9.27z" stroke="#333" fill="#333"/><path d="M1456-20c-8.84 0-16 7.16-16 16v48c0 8.84 7.16 16 16 16h128c8.84 0 16-7.16 16-16V-4c0-8.84-7.16-16-16-16z" stroke="#000" stroke-opacity="0" fill="#00b098"/><use xlink:href="#T" transform="matrix(1,0,0,1,1448,-12) translate(17.728395061728396 17.422222222222224)"/><use xlink:href="#U" transform="matrix(1,0,0,1,1448,-12) translate(91.70370370370372 17.422222222222224)"/><use xlink:href="#V" transform="matrix(1,0,0,1,1448,-12) translate(116.39506172839506 17.422222222222224)"/><use xlink:href="#W" transform="matrix(1,0,0,1,1448,-12) translate(13.777777777777768 38.75555555555556)"/><use xlink:href="#X" transform="matrix(1,0,0,1,1448,-12) translate(28.592592592592585 38.75555555555556)"/><use xlink:href="#Y" transform="matrix(1,0,0,1,1448,-12) translate(43.407407407407405 38.75555555555556)"/><use xlink:href="#Z" transform="matrix(1,0,0,1,1448,-12) translate(110.46913580246915 38.75555555555556)"/><use xlink:href="#Q" transform="matrix(1,0,0,1,1448,-12) translate(12.34567901234568 60.088888888888896)"/><use xlink:href="#aa" transform="matrix(1,0,0,1,1448,-12) translate(92.24691358024693 60.088888888888896)"/><path d="M1756-20c-8.84 0-16 7.16-16 16v48c0 8.84 7.16 16 16 16h128c8.84 0 16-7.16 16-16V-4c0-8.84-7.16-16-16-16z" stroke="#000" stroke-opacity="0" fill="#00b098"/><use xlink:href="#ab" transform="matrix(1,0,0,1,1748,-12) translate(15.283950617283953 26.488888888888887)"/><use xlink:href="#ac" transform="matrix(1,0,0,1,1748,-12) translate(90.24691358024691 26.488888888888887)"/><use xlink:href="#ad" transform="matrix(1,0,0,1,1748,-12) translate(22.17283950617284 47.822222222222216)"/><use xlink:href="#I" transform="matrix(1,0,0,1,1748,-12) translate(46.864197530864196 47.822222222222216)"/><path d="M1756 380c-8.84 0-16 7.16-16 16v48c0 8.84 7.16 16 16 16h128c8.84 0 16-7.16 16-16v-48c0-8.84-7.16-16-16-16z" stroke="#000" stroke-opacity="0" fill="#00b098"/><use xlink:href="#ae" transform="matrix(1,0,0,1,1748,388) translate(11.358024691358022 17.422222222222224)"/><use xlink:href="#af" transform="matrix(1,0,0,1,1748,388) translate(99.11111111111111 17.422222222222224)"/><use xlink:href="#ag" transform="matrix(1,0,0,1,1748,388) translate(25.62962962962963 38.75555555555556)"/><use xlink:href="#ah" transform="matrix(1,0,0,1,1748,388) translate(49.333333333333336 38.75555555555556)"/><use xlink:href="#ai" transform="matrix(1,0,0,1,1748,388) translate(108.49382716049384 38.75555555555556)"/><use xlink:href="#aj" transform="matrix(1,0,0,1,1748,388) translate(32.0246913580247 60.088888888888896)"/><path d="M1760 220c-11.05 0-20 8.95-20 20v60c0 11.05 8.95 20 20 20h120c11.05 0 20-8.95 20-20v-60c0-11.05-8.95-20-20-20z" stroke="#000" stroke-opacity="0" fill="#00b098"/><g><use xlink:href="#T" transform="matrix(1,0,0,1,1748,228) translate(17.728395061728396 17.422222222222224)"/><use xlink:href="#U" transform="matrix(1,0,0,1,1748,228) translate(91.70370370370372 17.422222222222224)"/><use xlink:href="#V" transform="matrix(1,0,0,1,1748,228) translate(116.39506172839506 17.422222222222224)"/><use xlink:href="#W" transform="matrix(1,0,0,1,1748,228) translate(26.123456790123452 38.75555555555556)"/><use xlink:href="#X" transform="matrix(1,0,0,1,1748,228) translate(40.938271604938265 38.75555555555556)"/><use xlink:href="#ak" transform="matrix(1,0,0,1,1748,228) translate(55.75308641975309 38.75555555555556)"/><use xlink:href="#al" transform="matrix(1,0,0,1,1748,228) translate(13.283950617283946 60.088888888888896)"/><use xlink:href="#am" transform="matrix(1,0,0,1,1748,228) translate(46.8641975308642 60.088888888888896)"/><use xlink:href="#an" transform="matrix(1,0,0,1,1748,228) translate(27.58024691358025 81.42222222222225)"/></g><path d="M1456 220c-8.84 0-16 7.16-16 16v48c0 8.84 7.16 16 16 16h128c8.84 0 16-7.16 16-16v-48c0-8.84-7.16-16-16-16z" stroke="#000" stroke-opacity="0" fill="#00b098"/><g><use xlink:href="#ao" transform="matrix(1,0,0,1,1448,228) translate(21.209876543209877 17.422222222222224)"/><use xlink:href="#ap" transform="matrix(1,0,0,1,1448,228) translate(37.4320987654321 38.75555555555556)"/><use xlink:href="#aq" transform="matrix(1,0,0,1,1448,228) translate(62.12345679012346 38.75555555555556)"/><use xlink:href="#ar" transform="matrix(1,0,0,1,1448,228) translate(96.69135802469137 38.75555555555556)"/><use xlink:href="#as" transform="matrix(1,0,0,1,1448,228) translate(41.90123456790124 60.088888888888896)"/></g><path d="M1615.17-187c-8.83 0-16 7.16-16 16v48c0 8.83 7.17 16 16 16h128c8.84 0 16-7.17 16-16v-48c0-8.84-7.16-16-16-16z" stroke="#000" stroke-opacity="0" fill="#00b098"/><g><use xlink:href="#at" transform="matrix(1,0,0,1,1607.1731628181021,-179.0031474555393) translate(19.28395061728394 17.422222222222224)"/><use xlink:href="#au" transform="matrix(1,0,0,1,1607.1731628181021,-179.0031474555393) translate(104.96296296296299 17.422222222222224)"/><use xlink:href="#av" transform="matrix(1,0,0,1,1607.1731628181021,-179.0031474555393) translate(20.271604938271597 38.75555555555556)"/><use xlink:href="#aw" transform="matrix(1,0,0,1,1607.1731628181021,-179.0031474555393) translate(103.97530864197532 38.75555555555556)"/><use xlink:href="#I" transform="matrix(1,0,0,1,1607.1731628181021,-179.0031474555393) translate(34.51851851851852 60.088888888888896)"/></g><path d="M1679.17-106.5v31a12 12 0 0 1-12 12H1532a12 12 0 0 0-12 12v15.12" stroke="#333" fill="none"/><path d="M1679.67-106.5h-1v-.5h1z" stroke="#333" stroke-width=".05" fill="#333"/><path d="M1520-21.62l-4.63-14.26h9.27z" stroke="#333" fill="#333"/><path d="M1455.17 100c-8.83 0-16 7.16-16 16v48c0 8.84 7.17 16 16 16h128c8.84 0 16-7.16 16-16v-48c0-8.84-7.16-16-16-16z" stroke="#000" stroke-opacity="0" fill="#00b098"/><g><use xlink:href="#ax" transform="matrix(1,0,0,1,1447.1731628181021,108) translate(35.03703703703704 26.488888888888887)"/><use xlink:href="#ay" transform="matrix(1,0,0,1,1447.1731628181021,108) translate(49.80246913580247 47.822222222222216)"/></g><path d="M1600.5 20h123.12" stroke="#3a414a" fill="none"/><path d="M1600.5 20.5h-.5v-1h.5z" stroke="#3a414a" stroke-width=".05" fill="#3a414a"/><path d="M1738.38 20l-14.26 4.64v-9.28z" stroke="#3a414a" fill="#3a414a"/><path d="M1756 100c-8.84 0-16 7.16-16 16v48c0 8.84 7.16 16 16 16h128c8.84 0 16-7.16 16-16v-48c0-8.84-7.16-16-16-16z" stroke="#000" stroke-opacity="0" fill="#00b098"/><g><use xlink:href="#az" transform="matrix(1,0,0,1,1748,108) translate(36.98765432098766 17.422222222222224)"/><use xlink:href="#aA" transform="matrix(1,0,0,1,1748,108) translate(21.679012345679016 38.75555555555556)"/><use xlink:href="#aB" transform="matrix(1,0,0,1,1748,108) translate(102.5679012345679 38.75555555555556)"/><use xlink:href="#I" transform="matrix(1,0,0,1,1748,108) translate(34.51851851851852 60.088888888888896)"/></g><path d="M1820 60.5v23.12" stroke="#3a414a" fill="none"/><path d="M1820.5 60.5h-1V60h1z" stroke="#3a414a" stroke-width=".05" fill="#3a414a"/><path d="M1820 98.38l-4.63-14.26h9.27z" stroke="#3a414a" fill="#3a414a"/><path d="M1739.5 140h-123.94" stroke="#3a414a" fill="none"/><path d="M1740 140.5h-.5v-1h.5z" stroke="#3a414a" stroke-width=".05" fill="#3a414a"/><path d="M1600.8 140l14.26-4.63v9.26z" stroke="#3a414a" fill="#3a414a"/><path d="M1519.17 180.5v23.12" stroke="#3a414a" fill="none"/><path d="M1519.67 180.5h-1v-.5h1z" stroke="#3a414a" stroke-width=".05" fill="#3a414a"/><path d="M1519.17 218.38l-4.63-14.26h9.27z" stroke="#3a414a" fill="#3a414a"/><path d="M1600.5 260h123.12" stroke="#3a414a" fill="none"/><path d="M1600.5 260.5h-.5v-1h.5z" stroke="#3a414a" stroke-width=".05" fill="#3a414a"/><path d="M1738.38 260l-14.26 4.63v-9.26z" stroke="#3a414a" fill="#3a414a"/><path d="M1820 320.5v43.12" stroke="#3a414a" fill="none"/><path d="M1820.5 320.5h-1v-.5h1z" stroke="#3a414a" stroke-width=".05" fill="#3a414a"/><path d="M1820 378.38l-4.63-14.26h9.27z" stroke="#3a414a" fill="#3a414a"/><path d="M1455.17 380c-8.83 0-16 7.16-16 16v48c0 8.84 7.17 16 16 16h128c8.84 0 16-7.16 16-16v-48c0-8.84-7.16-16-16-16z" stroke="#000" stroke-opacity="0" fill="#00b098"/><g><use xlink:href="#aC" transform="matrix(1,0,0,1,1447.1731628181021,388) translate(46.8641975308642 26.488888888888887)"/><use xlink:href="#D" transform="matrix(1,0,0,1,1447.1731628181021,388) translate(34.51851851851852 47.822222222222216)"/></g><path d="M1519.17 460.5v39.1a.4.4 0 0 0 .42.4.4.4 0 0 1 .4.4v23.22" stroke="#3a414a" fill="none"/><path d="M1519.67 460.5h-1v-.5h1z" stroke="#3a414a" stroke-width=".05" fill="#3a414a"/><path d="M1520 538.38l-4.63-14.26h9.27z" stroke="#3a414a" fill="#3a414a"/><path d="M1739.5 420h-123.94" stroke="#3a414a" fill="none"/><path d="M1740 420.5h-.5v-1h.5z" stroke="#3a414a" stroke-width=".05" fill="#3a414a"/><path d="M1600.8 420l14.26-4.63v9.26z" stroke="#3a414a" fill="#3a414a"/><path d="M1416-560c-8.84 0-16 7.16-16 16v48c0 8.84 7.16 16 16 16h128c8.84 0 16-7.16 16-16v-48c0-8.84-7.16-16-16-16z" stroke="#000" stroke-opacity="0" fill="#00b098"/><g><use xlink:href="#aD" transform="matrix(1,0,0,1,1408,-552) translate(38.96296296296296 17.422222222222224)"/><use xlink:href="#aE" transform="matrix(1,0,0,1,1408,-552) translate(54.71604938271605 17.422222222222224)"/><use xlink:href="#aF" transform="matrix(1,0,0,1,1408,-552) translate(95.16049382716051 17.422222222222224)"/><use xlink:href="#aG" transform="matrix(1,0,0,1,1408,-552) translate(33.01234567901234 38.75555555555556)"/><use xlink:href="#aH" transform="matrix(1,0,0,1,1408,-552) translate(91.23456790123458 38.75555555555556)"/><use xlink:href="#aI" transform="matrix(1,0,0,1,1408,-552) translate(41.90123456790124 60.088888888888896)"/></g><path d="M1480-699.5v123.12" stroke="#3a414a" fill="none"/><path d="M1480.5-699.5h-1v-.5h1z" stroke="#3a414a" stroke-width=".05" fill="#3a414a"/><path d="M1480-561.62l-4.63-14.26h9.27z" stroke="#3a414a" fill="#3a414a"/><path d="M1560.5-520h123.12" stroke="#3a414a" fill="none"/><path d="M1560.5-519.5h-.5v-1h.5z" stroke="#3a414a" stroke-width=".05" fill="#3a414a"/><path d="M1698.38-520l-14.26 4.63v-9.26z" stroke="#3a414a" fill="#3a414a"/><defs><path fill="#333" d="M26 75v-336h71v23H56V52h41v23H26" id="aJ"/><path fill="#333" d="M100-194c63 0 86 42 84 106H49c0 40 14 67 53 68 26 1 43-12 49-29l28 8c-11 28-37 45-77 45C44 4 14-33 15-96c1-61 26-98 85-98zm52 81c6-60-76-77-97-28-3 7-6 17-6 28h103" id="aK"/><path fill="#333" d="M135-143c-3-34-86-38-87 0 15 53 115 12 119 90S17 21 10-45l28-5c4 36 97 45 98 0-10-56-113-15-118-90-4-57 82-63 122-42 12 7 21 19 24 35" id="aL"/><path fill="#333" d="M59-47c-2 24 18 29 38 22v24C64 9 27 4 27-40v-127H5v-23h24l9-43h21v43h35v23H59v120" id="aM"/><path fill="#333" d="M141-36C126-15 110 5 73 4 37 3 15-17 15-53c-1-64 63-63 125-63 3-35-9-54-41-54-24 1-41 7-42 31l-33-3c5-37 33-52 76-52 45 0 72 20 72 64v82c-1 20 7 32 28 27v20c-31 9-61-2-59-35zM48-53c0 20 12 33 32 33 41-3 63-29 60-74-43 2-92-5-92 41zm25-158c8-23 27-35 38-54h36v5l-58 49H73" id="aN"/><g id="a"><use transform="matrix(0.05,0,0,0.05,0,0)" xlink:href="#aJ"/><use transform="matrix(0.05,0,0,0.05,5,0)" xlink:href="#aK"/><use transform="matrix(0.05,0,0,0.05,15,0)" xlink:href="#aL"/><use transform="matrix(0.05,0,0,0.05,24,0)" xlink:href="#aM"/><use transform="matrix(0.05,0,0,0.05,29,0)" xlink:href="#aN"/></g><path fill="#333" d="M117-194c89-4 53 116 60 194h-32v-121c0-31-8-49-39-48C34-167 62-67 57 0H25l-1-190h30c1 10-1 24 2 32 11-22 29-35 61-36" id="aO"/><path fill="#333" d="M141-36C126-15 110 5 73 4 37 3 15-17 15-53c-1-64 63-63 125-63 3-35-9-54-41-54-24 1-41 7-42 31l-33-3c5-37 33-52 76-52 45 0 72 20 72 64v82c-1 20 7 32 28 27v20c-31 9-61-2-59-35zM48-53c0 20 12 33 32 33 41-3 63-29 60-74-43 2-92-5-92 41" id="aP"/><g id="b"><use transform="matrix(0.05,0,0,0.05,0,0)" xlink:href="#aO"/><use transform="matrix(0.05,0,0,0.05,10,0)" xlink:href="#aP"/></g><path fill="#333" d="M115-194c55 1 70 41 70 98S169 2 115 4C84 4 66-9 55-30l1 105H24l-1-265h31l2 30c10-21 28-34 59-34zm-8 174c40 0 45-34 45-75s-6-73-45-74c-42 0-51 32-51 76 0 43 10 73 51 73" id="aQ"/><path fill="#333" d="M177-190C167-65 218 103 67 71c-23-6-38-20-44-43l32-5c15 47 100 32 89-28v-30C133-14 115 1 83 1 29 1 15-40 15-95c0-56 16-97 71-98 29-1 48 16 59 35 1-10 0-23 2-32h30zM94-22c36 0 50-32 50-73 0-42-14-75-50-75-39 0-46 34-46 75s6 73 46 73" id="aR"/><path fill="#333" d="M24-231v-30h32v30H24zM24 0v-190h32V0H24" id="aS"/><g id="c"><use transform="matrix(0.05,0,0,0.05,0,0)" xlink:href="#aQ"/><use transform="matrix(0.05,0,0,0.05,10,0)" xlink:href="#aN"/><use transform="matrix(0.05,0,0,0.05,20,0)" xlink:href="#aR"/><use transform="matrix(0.05,0,0,0.05,30,0)" xlink:href="#aS"/><use transform="matrix(0.05,0,0,0.05,33.95,0)" xlink:href="#aO"/><use transform="matrix(0.05,0,0,0.05,43.95,0)" xlink:href="#aP"/></g><path fill="#333" d="M96-169c-40 0-48 33-48 73s9 75 48 75c24 0 41-14 43-38l32 2c-6 37-31 61-74 61-59 0-76-41-82-99-10-93 101-131 147-64 4 7 5 14 7 22l-32 3c-4-21-16-35-41-35" id="aT"/><path fill="#333" d="M24 0v-261h32V0H24" id="aU"/><path fill="#333" d="M3 75V52h41v-290H3v-23h71V75H3" id="aV"/><g id="d"><use transform="matrix(0.05,0,0,0.05,0,0)" xlink:href="#aS"/><use transform="matrix(0.05,0,0,0.05,3.95,0)" xlink:href="#aO"/><use transform="matrix(0.05,0,0,0.05,13.949999999999998,0)" xlink:href="#aS"/><use transform="matrix(0.05,0,0,0.05,17.9,0)" xlink:href="#aT"/><use transform="matrix(0.05,0,0,0.05,26.899999999999995,0)" xlink:href="#aS"/><use transform="matrix(0.05,0,0,0.05,30.849999999999994,0)" xlink:href="#aP"/><use transform="matrix(0.05,0,0,0.05,40.849999999999994,0)" xlink:href="#aU"/><use transform="matrix(0.05,0,0,0.05,44.8,0)" xlink:href="#aV"/></g><g id="e"><use transform="matrix(0.05,0,0,0.05,0,0)" xlink:href="#aJ"/><use transform="matrix(0.05,0,0,0.05,5,0)" xlink:href="#aK"/><use transform="matrix(0.05,0,0,0.05,15,0)" xlink:href="#aL"/><use transform="matrix(0.05,0,0,0.05,24,0)" xlink:href="#aM"/><use transform="matrix(0.05,0,0,0.05,29,0)" xlink:href="#aN"/></g><g id="f"><use transform="matrix(0.05,0,0,0.05,0,0)" xlink:href="#aO"/><use transform="matrix(0.05,0,0,0.05,10,0)" xlink:href="#aP"/></g><g id="g"><use transform="matrix(0.05,0,0,0.05,0,0)" xlink:href="#aQ"/><use transform="matrix(0.05,0,0,0.05,10,0)" xlink:href="#aN"/><use transform="matrix(0.05,0,0,0.05,20,0)" xlink:href="#aR"/><use transform="matrix(0.05,0,0,0.05,30,0)" xlink:href="#aS"/><use transform="matrix(0.05,0,0,0.05,33.95,0)" xlink:href="#aO"/><use transform="matrix(0.05,0,0,0.05,43.95,0)" xlink:href="#aP"/></g><path fill="#333" d="M85-194c31 0 48 13 60 33l-1-100h32l1 261h-30c-2-10 0-23-3-31C134-8 116 4 85 4 32 4 16-35 15-94c0-66 23-100 70-100zm9 24c-40 0-46 34-46 75 0 40 6 74 45 74 42 0 51-32 51-76 0-42-9-74-50-73" id="aW"/><g id="h"><use transform="matrix(0.05,0,0,0.05,0,0)" xlink:href="#aW"/><use transform="matrix(0.05,0,0,0.05,10,0)" xlink:href="#aK"/></g><path fill="#333" d="M109-170H84l-4-78h32zm-65 0H19l-4-78h33" id="aX"/><path fill="#333" d="M210-169c-67 3-38 105-44 169h-31v-121c0-29-5-50-35-48C34-165 62-65 56 0H25l-1-190h30c1 10-1 24 2 32 10-44 99-50 107 0 11-21 27-35 58-36 85-2 47 119 55 194h-31v-121c0-29-5-49-35-48" id="aY"/><path fill="#333" d="M106-169C34-169 62-67 57 0H25v-261h32l-1 103c12-21 28-36 61-36 89 0 53 116 60 194h-32v-121c2-32-8-49-39-48" id="aZ"/><g id="i"><use transform="matrix(0.05,0,0,0.05,0,0)" xlink:href="#aX"/><use transform="matrix(0.05,0,0,0.05,6.3500000000000005,0)" xlink:href="#aY"/><use transform="matrix(0.05,0,0,0.05,21.3,0)" xlink:href="#aS"/><use transform="matrix(0.05,0,0,0.05,25.25,0)" xlink:href="#aO"/><use transform="matrix(0.05,0,0,0.05,35.25,0)" xlink:href="#aZ"/><use transform="matrix(0.05,0,0,0.05,45.25,0)" xlink:href="#aP"/><use transform="matrix(0.05,0,0,0.05,55.25,0)" xlink:href="#aL"/></g><path fill="#333" d="M100-194c62-1 85 37 85 99 1 63-27 99-86 99S16-35 15-95c0-66 28-99 85-99zM99-20c44 1 53-31 53-75 0-43-8-75-51-75s-53 32-53 75 10 74 51 75" id="ba"/><path fill="#333" d="M114-163C36-179 61-72 57 0H25l-1-190h30c1 12-1 29 2 39 6-27 23-49 58-41v29" id="bb"/><g id="j"><use transform="matrix(0.05,0,0,0.05,0,0)" xlink:href="#aT"/><use transform="matrix(0.05,0,0,0.05,9,0)" xlink:href="#ba"/><use transform="matrix(0.05,0,0,0.05,19,0)" xlink:href="#aY"/><use transform="matrix(0.05,0,0,0.05,33.95,0)" xlink:href="#aQ"/><use transform="matrix(0.05,0,0,0.05,43.95,0)" xlink:href="#bb"/><use transform="matrix(0.05,0,0,0.05,49.900000000000006,0)" xlink:href="#aP"/><use transform="matrix(0.05,0,0,0.05,59.900000000000006,0)" xlink:href="#aL"/><use transform="matrix(0.05,0,0,0.05,68.9,0)" xlink:href="#aX"/><use transform="matrix(0.05,0,0,0.05,75.25,0)" xlink:href="#aV"/></g><path fill="#fff" d="M125-24c46 0 70-25 89-51l25 16C214-24 183 4 123 4 8 4-5-146 60-208c32-50 158-61 191-5 5 7 9 14 11 22l-32 10c-9-28-33-43-69-43-74 0-108 51-108 125 0 46 24 75 72 75" id="bc"/><path fill="#fff" d="M6 0l50-261h32L37 0H6" id="bd"/><path fill="#fff" d="M50-231l6-30h32l-6 30H50zM6 0l37-190h31L37 0H6" id="be"/><path fill="#fff" d="M44-68c0 29 11 47 38 47 30 0 42-19 51-41l28 9C148-21 126 4 82 4 31 4 10-29 12-85c3-77 74-140 146-93 12 8 15 23 18 40l-31 5c-1-22-13-36-36-36-52 0-65 49-65 101" id="bf"/><path fill="#fff" d="M165-48c-4 18 1 34 23 27l-3 20c-29 8-62 0-52-35h-2C116-14 99 4 63 4 30 4 8-16 8-49c0-68 71-67 138-67 10-26 0-56-31-54-26 1-42 9-47 31l-32-5c8-67 160-71 144 15-5 28-9 54-15 81zM42-50c3 52 80 24 89-6 7-12 7-24 11-38-47 1-103-4-100 44" id="bg"/><path fill="#fff" d="M66-151c12-25 30-51 66-40l-6 26C45-176 58-65 38 0H6l36-190h30" id="bh"/><g id="k"><use transform="matrix(0.04938271604938272,0,0,0.04938271604938272,0,0)" xlink:href="#bc"/><use transform="matrix(0.04938271604938272,0,0,0.04938271604938272,12.790123456790125,0)" xlink:href="#bd"/><use transform="matrix(0.04938271604938272,0,0,0.04938271604938272,16.69135802469136,0)" xlink:href="#be"/><use transform="matrix(0.04938271604938272,0,0,0.04938271604938272,20.592592592592595,0)" xlink:href="#bf"/><use transform="matrix(0.04938271604938272,0,0,0.04938271604938272,29.481481481481485,0)" xlink:href="#bg"/><use transform="matrix(0.04938271604938272,0,0,0.04938271604938272,39.358024691358025,0)" xlink:href="#bh"/></g><path fill="#fff" d="M111-194c62-3 86 47 72 106H45c-7 38 6 69 45 68 27-1 43-14 53-32l24 11C152-15 129 4 87 4 38 3 12-23 12-71c0-70 32-119 99-123zm44 81c14-66-71-72-95-28-4 8-8 17-11 28h106" id="bi"/><path fill="#fff" d="M248-111c6-24 9-61-24-58-72 9-57 108-77 169h-31l26-142c3-37-50-30-64-10C52-115 50-51 37 0H6l36-190h30c-1 10-6 24-4 32 13-43 101-52 105 5 13-22 29-41 61-41 90 0 28 129 23 194h-31" id="bj"/><g id="l"><use transform="matrix(0.04938271604938272,0,0,0.04938271604938272,0,0)" xlink:href="#bi"/><use transform="matrix(0.04938271604938272,0,0,0.04938271604938272,9.876543209876544,0)" xlink:href="#bj"/></g><path fill="#fff" d="M123-170H98l11-78h32zm-65 0H33l11-78h32" id="bk"/><path fill="#fff" d="M222 0l43-216c-8 16-17 34-26 49L143 0h-22L81-216 41 0H11l48-248h42l38 208 116-208h45L252 0h-30" id="bl"/><path fill="#fff" d="M67-158c22-48 132-52 116 29L158 0h-32l25-140c3-38-53-32-70-12C52-117 51-52 38 0H6l36-190h30" id="bm"/><path fill="#fff" d="M67-158c15-20 31-36 64-36 94 0 33 127 27 194h-32l25-140c3-38-53-32-70-12C52-117 51-51 37 0H6l51-261h31" id="bn"/><path fill="#fff" d="M55-144c13 50 104 24 104 88C159 21 15 23 1-39l26-10c6 40 102 42 102-4-13-50-104-23-104-87 0-71 143-71 148-8l-29 4c-5-35-85-37-89 0" id="bo"/><g id="m"><use transform="matrix(0.04938271604938272,0,0,0.04938271604938272,0,0)" xlink:href="#bk"/><use transform="matrix(0.04938271604938272,0,0,0.04938271604938272,6.271604938271605,0)" xlink:href="#bl"/><use transform="matrix(0.04938271604938272,0,0,0.04938271604938272,21.037037037037038,0)" xlink:href="#be"/><use transform="matrix(0.04938271604938272,0,0,0.04938271604938272,24.938271604938272,0)" xlink:href="#bm"/><use transform="matrix(0.04938271604938272,0,0,0.04938271604938272,34.81481481481482,0)" xlink:href="#bn"/><use transform="matrix(0.04938271604938272,0,0,0.04938271604938272,44.69135802469136,0)" xlink:href="#bg"/><use transform="matrix(0.04938271604938272,0,0,0.04938271604938272,54.567901234567906,0)" xlink:href="#bo"/></g><path fill="#fff" d="M30-147c31-64 166-65 159 27C183-49 158 1 86 4 9 8 1-88 30-147zM88-20c53 0 68-48 68-100 0-31-11-51-44-50-52 1-68 46-68 97 0 32 13 53 44 53" id="bp"/><path fill="#fff" d="M67-162c32-53 139-36 121 50C175-51 163 2 97 4 68 4 52-11 42-31 38 6 28 39 22 75H-9l50-265h29c-1 10 0 20-3 28zm89 36c0-26-10-43-35-43-54 0-67 50-69 103-1 29 14 45 42 46 53 0 62-58 62-106" id="bq"/><g id="n"><use transform="matrix(0.04938271604938272,0,0,0.04938271604938272,0,0)" xlink:href="#bc"/><use transform="matrix(0.04938271604938272,0,0,0.04938271604938272,12.790123456790125,0)" xlink:href="#bp"/><use transform="matrix(0.04938271604938272,0,0,0.04938271604938272,22.66666666666667,0)" xlink:href="#bj"/><use transform="matrix(0.04938271604938272,0,0,0.04938271604938272,37.4320987654321,0)" xlink:href="#bq"/><use transform="matrix(0.04938271604938272,0,0,0.04938271604938272,47.308641975308646,0)" xlink:href="#bh"/><use transform="matrix(0.04938271604938272,0,0,0.04938271604938272,53.18518518518519,0)" xlink:href="#bg"/><use transform="matrix(0.04938271604938272,0,0,0.04938271604938272,63.061728395061735,0)" xlink:href="#bo"/><use transform="matrix(0.04938271604938272,0,0,0.04938271604938272,71.95061728395062,0)" xlink:href="#bk"/></g><path fill="#fff" d="M194-120c59 52 2 134-86 124-53-6-90-18-98-63l31-7c8 30 29 43 70 43 46 0 84-17 71-62-32-43-135-20-137-98-3-89 178-90 191-16l-30 9c-8-48-127-53-127 5 0 53 81 35 115 65" id="br"/><g id="o"><use transform="matrix(0.04938271604938272,0,0,0.04938271604938272,0,0)" xlink:href="#br"/><use transform="matrix(0.04938271604938272,0,0,0.04938271604938272,11.851851851851853,0)" xlink:href="#bi"/><use transform="matrix(0.04938271604938272,0,0,0.04938271604938272,21.7283950617284,0)" xlink:href="#bd"/><use transform="matrix(0.04938271604938272,0,0,0.04938271604938272,25.629629629629633,0)" xlink:href="#bi"/><use transform="matrix(0.04938271604938272,0,0,0.04938271604938272,35.50617283950618,0)" xlink:href="#bf"/><use transform="matrix(0.04938271604938272,0,0,0.04938271604938272,44.39506172839506,0)" xlink:href="#be"/><use transform="matrix(0.04938271604938272,0,0,0.04938271604938272,48.2962962962963,0)" xlink:href="#bp"/><use transform="matrix(0.04938271604938272,0,0,0.04938271604938272,58.17283950617284,0)" xlink:href="#bm"/><use transform="matrix(0.04938271604938272,0,0,0.04938271604938272,68.0493827160494,0)" xlink:href="#bg"/><use transform="matrix(0.04938271604938272,0,0,0.04938271604938272,77.92592592592594,0)" xlink:href="#bh"/></g><path fill="#fff" d="M89 0H52L20-190h33L74-25l89-165h34" id="bs"/><path fill="#fff" d="M44-68c0 29 11 47 38 47 30 0 42-19 51-41l28 9C148-21 126 4 82 4 31 4 10-29 12-85c3-77 74-140 146-93 12 8 15 23 18 40l-31 5c-1-22-13-36-36-36-52 0-65 49-65 101zM85 43c0-13-18-15-31-12L71 0h19L80 17c16 1 28 8 28 24 0 34-40 36-72 32l4-16c19 4 44 4 45-14" id="bt"/><path fill="#fff" d="M166-48c-4 18 1 34 23 27l-3 20c-29 8-62 0-52-35h-2C117-14 100 4 64 4 31 4 9-16 9-49c0-68 71-67 138-67 10-26 0-56-31-54-26 1-42 9-47 31l-32-5c8-67 160-71 144 15-5 28-9 54-15 81zM43-50c3 52 80 24 89-6 7-12 7-24 11-38-47 1-103-4-100 44zm150-208c-8 21-15 46-44 47-22 0-30-19-50-21-14 0-21 10-25 21H58c8-21 14-47 44-47 22 0 32 18 50 21 13-1 21-10 25-21h16" id="bu"/><g id="p"><use transform="matrix(0.04938271604938272,0,0,0.04938271604938272,0,0)" xlink:href="#bg"/><use transform="matrix(0.04938271604938272,0,0,0.04938271604938272,9.876543209876544,0)" xlink:href="#bs"/><use transform="matrix(0.04938271604938272,0,0,0.04938271604938272,18.765432098765434,0)" xlink:href="#bg"/><use transform="matrix(0.04938271604938272,0,0,0.04938271604938272,28.641975308641978,0)" xlink:href="#bd"/><use transform="matrix(0.04938271604938272,0,0,0.04938271604938272,32.543209876543216,0)" xlink:href="#be"/><use transform="matrix(0.04938271604938272,0,0,0.04938271604938272,36.44444444444445,0)" xlink:href="#bg"/><use transform="matrix(0.04938271604938272,0,0,0.04938271604938272,46.320987654320994,0)" xlink:href="#bt"/><use transform="matrix(0.04938271604938272,0,0,0.04938271604938272,55.209876543209894,0)" xlink:href="#bu"/><use transform="matrix(0.04938271604938272,0,0,0.04938271604938272,65.08641975308643,0)" xlink:href="#bp"/></g><path fill="#fff" d="M67 3c-93-2-31-127-26-193h32L48-50c-3 39 53 32 70 12 30-34 30-101 43-152h32L157 0h-30c1-10 6-24 4-33-14 20-29 37-64 36" id="bv"/><g id="q"><use transform="matrix(0.04938271604938272,0,0,0.04938271604938272,0,0)" xlink:href="#bp"/><use transform="matrix(0.04938271604938272,0,0,0.04938271604938272,9.876543209876544,0)" xlink:href="#bv"/></g><path fill="#fff" d="M51-54c-9 22 5 41 31 30L79-1C43 14 10-4 19-52l22-115H19l5-23h22l19-43h21l-9 43h35l-4 23H73" id="bw"/><path fill="#fff" d="M166-48c-4 18 1 34 23 27l-3 20c-29 8-62 0-52-35h-2C117-14 100 4 64 4 31 4 9-16 9-49c0-68 71-67 138-67 10-26 0-56-31-54-26 1-42 9-47 31l-32-5c8-67 160-71 144 15-5 28-9 54-15 81zM43-50c3 52 80 24 89-6 7-12 7-24 11-38-47 1-103-4-100 44zm52-161c10-23 31-35 45-54h38l-1 5-66 49H95" id="bx"/><g id="r"><use transform="matrix(0.04938271604938272,0,0,0.04938271604938272,0,0)" xlink:href="#bf"/><use transform="matrix(0.04938271604938272,0,0,0.04938271604938272,8.88888888888889,0)" xlink:href="#bp"/><use transform="matrix(0.04938271604938272,0,0,0.04938271604938272,18.765432098765434,0)" xlink:href="#bj"/><use transform="matrix(0.04938271604938272,0,0,0.04938271604938272,33.53086419753087,0)" xlink:href="#bi"/><use transform="matrix(0.04938271604938272,0,0,0.04938271604938272,43.40740740740741,0)" xlink:href="#bm"/><use transform="matrix(0.04938271604938272,0,0,0.04938271604938272,53.283950617283956,0)" xlink:href="#bw"/><use transform="matrix(0.04938271604938272,0,0,0.04938271604938272,58.22222222222223,0)" xlink:href="#bx"/><use transform="matrix(0.04938271604938272,0,0,0.04938271604938272,68.09876543209877,0)" xlink:href="#bh"/><use transform="matrix(0.04938271604938272,0,0,0.04938271604938272,73.97530864197532,0)" xlink:href="#be"/><use transform="matrix(0.04938271604938272,0,0,0.04938271604938272,77.87654320987656,0)" xlink:href="#bp"/></g><path fill="#333" d="M84 4C-5 8 30-112 23-190h32v120c0 31 7 50 39 49 72-2 45-101 50-169h31l1 190h-30c-1-10 1-25-2-33-11 22-28 36-60 37" id="by"/><g id="s"><use transform="matrix(0.05,0,0,0.05,0,0)" xlink:href="#aJ"/><use transform="matrix(0.05,0,0,0.05,5,0)" xlink:href="#by"/><use transform="matrix(0.05,0,0,0.05,15,0)" xlink:href="#aL"/><use transform="matrix(0.05,0,0,0.05,24,0)" xlink:href="#by"/><use transform="matrix(0.05,0,0,0.05,34,0)" xlink:href="#aN"/><use transform="matrix(0.05,0,0,0.05,44,0)" xlink:href="#bb"/><use transform="matrix(0.05,0,0,0.05,49.95,0)" xlink:href="#aS"/><use transform="matrix(0.05,0,0,0.05,53.900000000000006,0)" xlink:href="#ba"/></g><g id="t"><use transform="matrix(0.05,0,0,0.05,0,0)" xlink:href="#aK"/><use transform="matrix(0.05,0,0,0.05,10,0)" xlink:href="#aL"/><use transform="matrix(0.05,0,0,0.05,19,0)" xlink:href="#aM"/><use transform="matrix(0.05,0,0,0.05,24,0)" xlink:href="#aN"/></g><g id="u"><use transform="matrix(0.05,0,0,0.05,0,0)" xlink:href="#aU"/><use transform="matrix(0.05,0,0,0.05,3.95,0)" xlink:href="#ba"/><use transform="matrix(0.05,0,0,0.05,13.949999999999998,0)" xlink:href="#aR"/><use transform="matrix(0.05,0,0,0.05,23.95,0)" xlink:href="#aP"/><use transform="matrix(0.05,0,0,0.05,33.95,0)" xlink:href="#aW"/><use transform="matrix(0.05,0,0,0.05,43.95,0)" xlink:href="#ba"/><use transform="matrix(0.05,0,0,0.05,53.95,0)" xlink:href="#aV"/></g><path fill="#fff" d="M249-183c0 48-29 72-75 77L221 0h-36l-43-103H65L45 0H11l48-248c83 2 190-17 190 65zm-34 3c0-55-74-39-127-41l-18 92c63-1 145 13 145-51" id="bz"/><path fill="#fff" d="M133-28C103 26-5 8 13-77c13-62 24-115 90-117 29-1 46 15 56 35l19-102h32L160 0h-30zM45-64c-2 27 10 43 35 43 54-1 69-50 69-103 0-29-15-46-42-46-53-1-58 58-62 106" id="bA"/><g id="v"><use transform="matrix(0.04938271604938272,0,0,0.04938271604938272,0,0)" xlink:href="#bz"/><use transform="matrix(0.04938271604938272,0,0,0.04938271604938272,12.790123456790125,0)" xlink:href="#bi"/><use transform="matrix(0.04938271604938272,0,0,0.04938271604938272,22.66666666666667,0)" xlink:href="#bA"/><use transform="matrix(0.04938271604938272,0,0,0.04938271604938272,32.543209876543216,0)" xlink:href="#be"/><use transform="matrix(0.04938271604938272,0,0,0.04938271604938272,36.44444444444445,0)" xlink:href="#bh"/><use transform="matrix(0.04938271604938272,0,0,0.04938271604938272,42.320987654320994,0)" xlink:href="#bi"/><use transform="matrix(0.04938271604938272,0,0,0.04938271604938272,52.19753086419754,0)" xlink:href="#bf"/><use transform="matrix(0.04938271604938272,0,0,0.04938271604938272,61.08641975308644,0)" xlink:href="#be"/><use transform="matrix(0.04938271604938272,0,0,0.04938271604938272,64.98765432098767,0)" xlink:href="#bp"/><use transform="matrix(0.04938271604938272,0,0,0.04938271604938272,74.86419753086422,0)" xlink:href="#bm"/><use transform="matrix(0.04938271604938272,0,0,0.04938271604938272,84.74074074074076,0)" xlink:href="#bg"/><use transform="matrix(0.04938271604938272,0,0,0.04938271604938272,94.6172839506173,0)" xlink:href="#bh"/></g><g id="w"><use transform="matrix(0.04938271604938272,0,0,0.04938271604938272,0,0)" xlink:href="#bq"/><use transform="matrix(0.04938271604938272,0,0,0.04938271604938272,9.876543209876544,0)" xlink:href="#bg"/><use transform="matrix(0.04938271604938272,0,0,0.04938271604938272,19.75308641975309,0)" xlink:href="#bh"/><use transform="matrix(0.04938271604938272,0,0,0.04938271604938272,25.629629629629633,0)" xlink:href="#bg"/></g><use transform="matrix(0.04938271604938272,0,0,0.04938271604938272,0,0)" xlink:href="#bg" id="x"/><path fill="#fff" d="M103-194c29 0 47 14 56 36 2-11 5-23 8-32h30L160-5C157 61 82 97 21 62 9 55 4 45 1 30l28-7c7 42 83 31 92-3 4-16 9-38 13-55-13 20-29 36-62 36-40 0-60-25-60-64 0-71 23-131 91-131zm4 24c-53 0-58 54-61 104-2 27 10 44 36 44 49 0 65-50 67-102 1-29-15-46-42-46" id="bB"/><g id="y"><use transform="matrix(0.04938271604938272,0,0,0.04938271604938272,0,0)" xlink:href="#bq"/><use transform="matrix(0.04938271604938272,0,0,0.04938271604938272,9.876543209876544,0)" xlink:href="#bx"/><use transform="matrix(0.04938271604938272,0,0,0.04938271604938272,19.75308641975309,0)" xlink:href="#bB"/><use transform="matrix(0.04938271604938272,0,0,0.04938271604938272,29.629629629629633,0)" xlink:href="#be"/><use transform="matrix(0.04938271604938272,0,0,0.04938271604938272,33.53086419753087,0)" xlink:href="#bm"/><use transform="matrix(0.04938271604938272,0,0,0.04938271604938272,43.40740740740741,0)" xlink:href="#bg"/></g><g id="z"><use transform="matrix(0.04938271604938272,0,0,0.04938271604938272,0,0)" xlink:href="#bA"/><use transform="matrix(0.04938271604938272,0,0,0.04938271604938272,9.876543209876544,0)" xlink:href="#bi"/></g><g id="A"><use transform="matrix(0.04938271604938272,0,0,0.04938271604938272,0,0)" xlink:href="#bd"/><use transform="matrix(0.04938271604938272,0,0,0.04938271604938272,3.901234567901235,0)" xlink:href="#bp"/><use transform="matrix(0.04938271604938272,0,0,0.04938271604938272,13.777777777777779,0)" xlink:href="#bB"/><use transform="matrix(0.04938271604938272,0,0,0.04938271604938272,23.654320987654323,0)" xlink:href="#be"/><use transform="matrix(0.04938271604938272,0,0,0.04938271604938272,27.555555555555557,0)" xlink:href="#bm"/></g><path fill="#333" d="M141-36C126-15 110 5 73 4 37 3 15-17 15-53c-1-64 63-63 125-63 3-35-9-54-41-54-24 1-41 7-42 31l-33-3c5-37 33-52 76-52 45 0 72 20 72 64v82c-1 20 7 32 28 27v20c-31 9-61-2-59-35zM48-53c0 20 12 33 32 33 41-3 63-29 60-74-43 2-92-5-92 41zm117-205c-3 23-9 48-36 47-26-1-65-44-74 0H39c4-23 8-48 36-47s64 44 74 0h16" id="bC"/><g id="B"><use transform="matrix(0.05,0,0,0.05,0,0)" xlink:href="#aO"/><use transform="matrix(0.05,0,0,0.05,10,0)" xlink:href="#bC"/><use transform="matrix(0.05,0,0,0.05,20,0)" xlink:href="#ba"/></g><path fill="#fff" d="M187 0l-14-72H61L19 0h-37l149-248h38L221 0h-34zm-19-99l-22-123L76-99h92" id="bD"/><g id="C"><use transform="matrix(0.04938271604938272,0,0,0.04938271604938272,0,0)" xlink:href="#bD"/><use transform="matrix(0.04938271604938272,0,0,0.04938271604938272,11.851851851851853,0)" xlink:href="#bm"/><use transform="matrix(0.04938271604938272,0,0,0.04938271604938272,21.7283950617284,0)" xlink:href="#bg"/><use transform="matrix(0.04938271604938272,0,0,0.04938271604938272,31.60493827160494,0)" xlink:href="#bd"/><use transform="matrix(0.04938271604938272,0,0,0.04938271604938272,35.50617283950618,0)" xlink:href="#be"/><use transform="matrix(0.04938271604938272,0,0,0.04938271604938272,39.40740740740741,0)" xlink:href="#bo"/><use transform="matrix(0.04938271604938272,0,0,0.04938271604938272,48.296296296296305,0)" xlink:href="#bg"/><use transform="matrix(0.04938271604938272,0,0,0.04938271604938272,58.17283950617284,0)" xlink:href="#bh"/></g><g id="D"><use transform="matrix(0.04938271604938272,0,0,0.04938271604938272,0,0)" xlink:href="#bg"/><use transform="matrix(0.04938271604938272,0,0,0.04938271604938272,9.876543209876544,0)" xlink:href="#bs"/><use transform="matrix(0.04938271604938272,0,0,0.04938271604938272,18.765432098765434,0)" xlink:href="#bg"/><use transform="matrix(0.04938271604938272,0,0,0.04938271604938272,28.641975308641978,0)" xlink:href="#bd"/><use transform="matrix(0.04938271604938272,0,0,0.04938271604938272,32.543209876543216,0)" xlink:href="#be"/><use transform="matrix(0.04938271604938272,0,0,0.04938271604938272,36.44444444444445,0)" xlink:href="#bg"/><use transform="matrix(0.04938271604938272,0,0,0.04938271604938272,46.320987654320994,0)" xlink:href="#bt"/><use transform="matrix(0.04938271604938272,0,0,0.04938271604938272,55.209876543209894,0)" xlink:href="#bu"/><use transform="matrix(0.04938271604938272,0,0,0.04938271604938272,65.08641975308643,0)" xlink:href="#bp"/></g><path fill="#333" d="M108 0H70L1-190h34L89-25l56-165h34" id="bE"/><path fill="#333" d="M96-169c-40 0-48 33-48 73s9 75 48 75c24 0 41-14 43-38l32 2c-6 37-31 61-74 61-59 0-76-41-82-99-10-93 101-131 147-64 4 7 5 14 7 22l-32 3c-4-21-16-35-41-35zm3 187c19-1 33 8 33 26 0 31-30 33-64 32V58c18 2 39 4 41-13 1-15-18-13-34-13L87 0h19" id="bF"/><g id="E"><use transform="matrix(0.05,0,0,0.05,0,0)" xlink:href="#aJ"/><use transform="matrix(0.05,0,0,0.05,5,0)" xlink:href="#aP"/><use transform="matrix(0.05,0,0,0.05,15,0)" xlink:href="#bE"/><use transform="matrix(0.05,0,0,0.05,24,0)" xlink:href="#aP"/><use transform="matrix(0.05,0,0,0.05,34,0)" xlink:href="#aU"/><use transform="matrix(0.05,0,0,0.05,37.95,0)" xlink:href="#aS"/><use transform="matrix(0.05,0,0,0.05,41.900000000000006,0)" xlink:href="#aP"/><use transform="matrix(0.05,0,0,0.05,51.900000000000006,0)" xlink:href="#bF"/><use transform="matrix(0.05,0,0,0.05,60.900000000000006,0)" xlink:href="#bC"/><use transform="matrix(0.05,0,0,0.05,70.9,0)" xlink:href="#ba"/></g><g id="F"><use transform="matrix(0.05,0,0,0.05,0,0)" xlink:href="#aP"/><use transform="matrix(0.05,0,0,0.05,10,0)" xlink:href="#aQ"/><use transform="matrix(0.05,0,0,0.05,20,0)" xlink:href="#bb"/><use transform="matrix(0.05,0,0,0.05,25.950000000000003,0)" xlink:href="#ba"/><use transform="matrix(0.05,0,0,0.05,35.95,0)" xlink:href="#bE"/><use transform="matrix(0.05,0,0,0.05,44.95,0)" xlink:href="#aP"/><use transform="matrix(0.05,0,0,0.05,54.95,0)" xlink:href="#aW"/><use transform="matrix(0.05,0,0,0.05,64.95,0)" xlink:href="#aP"/><use transform="matrix(0.05,0,0,0.05,74.95,0)" xlink:href="#aV"/></g><path fill="#fff" d="M173 0L80-213 41 0H11l48-248h37l94 214 40-214h30L212 0h-39" id="bG"/><g id="G"><use transform="matrix(0.04938271604938272,0,0,0.04938271604938272,0,0)" xlink:href="#bG"/><use transform="matrix(0.04938271604938272,0,0,0.04938271604938272,12.790123456790125,0)" xlink:href="#bu"/><use transform="matrix(0.04938271604938272,0,0,0.04938271604938272,22.66666666666667,0)" xlink:href="#bp"/></g><path fill="#fff" d="M68-162c25-46 127-43 121 31C183-60 169 1 98 4 69 5 53-11 43-31L36 0H5l52-261h31zm88 36c2-27-9-43-34-43-55 0-70 51-70 103 0 29 15 45 43 46 52 0 58-58 61-106" id="bH"/><g id="H"><use transform="matrix(0.04938271604938272,0,0,0.04938271604938272,0,0)" xlink:href="#bq"/><use transform="matrix(0.04938271604938272,0,0,0.04938271604938272,9.876543209876544,0)" xlink:href="#bv"/><use transform="matrix(0.04938271604938272,0,0,0.04938271604938272,19.75308641975309,0)" xlink:href="#bH"/><use transform="matrix(0.04938271604938272,0,0,0.04938271604938272,29.629629629629633,0)" xlink:href="#bd"/><use transform="matrix(0.04938271604938272,0,0,0.04938271604938272,33.53086419753087,0)" xlink:href="#be"/><use transform="matrix(0.04938271604938272,0,0,0.04938271604938272,37.4320987654321,0)" xlink:href="#bf"/><use transform="matrix(0.04938271604938272,0,0,0.04938271604938272,46.32098765432099,0)" xlink:href="#bg"/><use transform="matrix(0.04938271604938272,0,0,0.04938271604938272,56.19753086419754,0)" xlink:href="#bh"/></g><g id="I"><use transform="matrix(0.04938271604938272,0,0,0.04938271604938272,0,0)" xlink:href="#bg"/><use transform="matrix(0.04938271604938272,0,0,0.04938271604938272,9.876543209876544,0)" xlink:href="#bs"/><use transform="matrix(0.04938271604938272,0,0,0.04938271604938272,18.765432098765434,0)" xlink:href="#bg"/><use transform="matrix(0.04938271604938272,0,0,0.04938271604938272,28.641975308641978,0)" xlink:href="#bd"/><use transform="matrix(0.04938271604938272,0,0,0.04938271604938272,32.543209876543216,0)" xlink:href="#be"/><use transform="matrix(0.04938271604938272,0,0,0.04938271604938272,36.44444444444445,0)" xlink:href="#bg"/><use transform="matrix(0.04938271604938272,0,0,0.04938271604938272,46.320987654320994,0)" xlink:href="#bt"/><use transform="matrix(0.04938271604938272,0,0,0.04938271604938272,55.209876543209894,0)" xlink:href="#bu"/><use transform="matrix(0.04938271604938272,0,0,0.04938271604938272,65.08641975308643,0)" xlink:href="#bp"/></g><g id="J"><use transform="matrix(0.05,0,0,0.05,0,0)" xlink:href="#aJ"/><use transform="matrix(0.05,0,0,0.05,5,0)" xlink:href="#aL"/><use transform="matrix(0.05,0,0,0.05,14,0)" xlink:href="#aK"/><use transform="matrix(0.05,0,0,0.05,24,0)" xlink:href="#aO"/><use transform="matrix(0.05,0,0,0.05,34,0)" xlink:href="#bC"/><use transform="matrix(0.05,0,0,0.05,44,0)" xlink:href="#ba"/><use transform="matrix(0.05,0,0,0.05,54,0)" xlink:href="#aV"/></g><path fill="#fff" d="M238-179c0 84-86 86-175 82L45 0H11l48-248c82 0 179-12 179 69zm-34 1c0-53-64-42-116-43l-19 98c63 0 135 9 135-55" id="bI"/><g id="K"><use transform="matrix(0.04938271604938272,0,0,0.04938271604938272,0,0)" xlink:href="#bI"/><use transform="matrix(0.04938271604938272,0,0,0.04938271604938272,11.851851851851853,0)" xlink:href="#bv"/><use transform="matrix(0.04938271604938272,0,0,0.04938271604938272,21.7283950617284,0)" xlink:href="#bH"/><use transform="matrix(0.04938271604938272,0,0,0.04938271604938272,31.60493827160494,0)" xlink:href="#bd"/><use transform="matrix(0.04938271604938272,0,0,0.04938271604938272,35.50617283950618,0)" xlink:href="#be"/><use transform="matrix(0.04938271604938272,0,0,0.04938271604938272,39.40740740740741,0)" xlink:href="#bf"/><use transform="matrix(0.04938271604938272,0,0,0.04938271604938272,48.296296296296305,0)" xlink:href="#bg"/><use transform="matrix(0.04938271604938272,0,0,0.04938271604938272,58.17283950617284,0)" xlink:href="#bh"/></g><g id="L"><use transform="matrix(0.04938271604938272,0,0,0.04938271604938272,0,0)" xlink:href="#bl"/><use transform="matrix(0.04938271604938272,0,0,0.04938271604938272,14.765432098765434,0)" xlink:href="#bg"/><use transform="matrix(0.04938271604938272,0,0,0.04938271604938272,24.641975308641978,0)" xlink:href="#bm"/><use transform="matrix(0.04938271604938272,0,0,0.04938271604938272,34.51851851851852,0)" xlink:href="#bA"/><use transform="matrix(0.04938271604938272,0,0,0.04938271604938272,44.39506172839506,0)" xlink:href="#bg"/><use transform="matrix(0.04938271604938272,0,0,0.04938271604938272,54.27160493827161,0)" xlink:href="#bh"/></g><path fill="#fff" d="M18-82l6-28h88l-6 28H18" id="bJ"/><g id="M"><use transform="matrix(0.04938271604938272,0,0,0.04938271604938272,0,0)" xlink:href="#bi"/><use transform="matrix(0.04938271604938272,0,0,0.04938271604938272,9.876543209876544,0)" xlink:href="#bJ"/><use transform="matrix(0.04938271604938272,0,0,0.04938271604938272,15.753086419753087,0)" xlink:href="#bj"/><use transform="matrix(0.04938271604938272,0,0,0.04938271604938272,30.518518518518523,0)" xlink:href="#bg"/><use transform="matrix(0.04938271604938272,0,0,0.04938271604938272,40.39506172839506,0)" xlink:href="#be"/><use transform="matrix(0.04938271604938272,0,0,0.04938271604938272,44.2962962962963,0)" xlink:href="#bd"/></g><g id="N"><use transform="matrix(0.04938271604938272,0,0,0.04938271604938272,0,0)" xlink:href="#bg"/><use transform="matrix(0.04938271604938272,0,0,0.04938271604938272,9.876543209876544,0)" xlink:href="#bs"/><use transform="matrix(0.04938271604938272,0,0,0.04938271604938272,18.765432098765434,0)" xlink:href="#be"/><use transform="matrix(0.04938271604938272,0,0,0.04938271604938272,22.666666666666668,0)" xlink:href="#bo"/><use transform="matrix(0.04938271604938272,0,0,0.04938271604938272,31.555555555555557,0)" xlink:href="#bg"/><use transform="matrix(0.04938271604938272,0,0,0.04938271604938272,41.4320987654321,0)" xlink:href="#bm"/><use transform="matrix(0.04938271604938272,0,0,0.04938271604938272,51.308641975308646,0)" xlink:href="#bA"/><use transform="matrix(0.04938271604938272,0,0,0.04938271604938272,61.18518518518519,0)" xlink:href="#bp"/></g><path fill="#fff" d="M133-28C103 26-5 8 13-77c13-62 24-115 90-117 29-1 46 15 56 35 2-12 6-24 8-34h31L144 75h-31zM45-64c-2 27 10 43 35 43 54-1 69-50 69-103 0-29-15-46-42-46-53-1-58 58-62 106" id="bK"/><g id="O"><use transform="matrix(0.04938271604938272,0,0,0.04938271604938272,0,0)" xlink:href="#bK"/><use transform="matrix(0.04938271604938272,0,0,0.04938271604938272,9.876543209876544,0)" xlink:href="#bv"/><use transform="matrix(0.04938271604938272,0,0,0.04938271604938272,19.75308641975309,0)" xlink:href="#bi"/></g><use transform="matrix(0.04938271604938272,0,0,0.04938271604938272,0,0)" xlink:href="#bg" id="P"/><g id="Q"><use transform="matrix(0.04938271604938272,0,0,0.04938271604938272,0,0)" xlink:href="#bg"/><use transform="matrix(0.04938271604938272,0,0,0.04938271604938272,9.876543209876544,0)" xlink:href="#bs"/><use transform="matrix(0.04938271604938272,0,0,0.04938271604938272,18.765432098765434,0)" xlink:href="#bg"/><use transform="matrix(0.04938271604938272,0,0,0.04938271604938272,28.641975308641978,0)" xlink:href="#bd"/><use transform="matrix(0.04938271604938272,0,0,0.04938271604938272,32.543209876543216,0)" xlink:href="#be"/><use transform="matrix(0.04938271604938272,0,0,0.04938271604938272,36.44444444444445,0)" xlink:href="#bg"/><use transform="matrix(0.04938271604938272,0,0,0.04938271604938272,46.320987654320994,0)" xlink:href="#bt"/><use transform="matrix(0.04938271604938272,0,0,0.04938271604938272,55.209876543209894,0)" xlink:href="#bu"/><use transform="matrix(0.04938271604938272,0,0,0.04938271604938272,65.08641975308643,0)" xlink:href="#bp"/></g><path fill="#fff" d="M76-167L44 0H12l33-167H18l4-23h27c3-47 25-81 82-69l-4 24c-35-8-44 15-46 45h37l-5 23H76" id="bL"/><g id="R"><use transform="matrix(0.04938271604938272,0,0,0.04938271604938272,0,0)" xlink:href="#bL"/><use transform="matrix(0.04938271604938272,0,0,0.04938271604938272,4.938271604938272,0)" xlink:href="#bp"/><use transform="matrix(0.04938271604938272,0,0,0.04938271604938272,14.814814814814817,0)" xlink:href="#be"/></g><g id="S"><use transform="matrix(0.04938271604938272,0,0,0.04938271604938272,0,0)" xlink:href="#bq"/><use transform="matrix(0.04938271604938272,0,0,0.04938271604938272,9.876543209876544,0)" xlink:href="#bv"/><use transform="matrix(0.04938271604938272,0,0,0.04938271604938272,19.75308641975309,0)" xlink:href="#bH"/><use transform="matrix(0.04938271604938272,0,0,0.04938271604938272,29.629629629629633,0)" xlink:href="#bd"/><use transform="matrix(0.04938271604938272,0,0,0.04938271604938272,33.53086419753087,0)" xlink:href="#be"/><use transform="matrix(0.04938271604938272,0,0,0.04938271604938272,37.4320987654321,0)" xlink:href="#bf"/><use transform="matrix(0.04938271604938272,0,0,0.04938271604938272,46.32098765432099,0)" xlink:href="#bg"/><use transform="matrix(0.04938271604938272,0,0,0.04938271604938272,56.19753086419754,0)" xlink:href="#bA"/><use transform="matrix(0.04938271604938272,0,0,0.04938271604938272,66.07407407407408,0)" xlink:href="#bg"/></g><path fill="#fff" d="M11 0l48-248h184l-5 28H87l-15 79h140l-5 27H67L50-27h158l-5 27H11" id="bM"/><g id="T"><use transform="matrix(0.04938271604938272,0,0,0.04938271604938272,0,0)" xlink:href="#bM"/><use transform="matrix(0.04938271604938272,0,0,0.04938271604938272,11.851851851851853,0)" xlink:href="#bo"/><use transform="matrix(0.04938271604938272,0,0,0.04938271604938272,20.74074074074074,0)" xlink:href="#bf"/><use transform="matrix(0.04938271604938272,0,0,0.04938271604938272,29.629629629629633,0)" xlink:href="#bp"/><use transform="matrix(0.04938271604938272,0,0,0.04938271604938272,39.50617283950618,0)" xlink:href="#bd"/><use transform="matrix(0.04938271604938272,0,0,0.04938271604938272,43.40740740740741,0)" xlink:href="#bn"/><use transform="matrix(0.04938271604938272,0,0,0.04938271604938272,53.283950617283956,0)" xlink:href="#bi"/><use transform="matrix(0.04938271604938272,0,0,0.04938271604938272,63.1604938271605,0)" xlink:href="#bh"/></g><g id="U"><use transform="matrix(0.04938271604938272,0,0,0.04938271604938272,0,0)" xlink:href="#bA"/><use transform="matrix(0.04938271604938272,0,0,0.04938271604938272,9.876543209876544,0)" xlink:href="#bi"/></g><path fill="#fff" d="M9 0l6-27h63l36-188-63 39 6-31 66-41h29L110-27h60l-5 27H9" id="bN"/><use transform="matrix(0.04938271604938272,0,0,0.04938271604938272,0,0)" xlink:href="#bN" id="V"/><path fill="#fff" d="M166-48c-4 18 1 34 23 27l-3 20c-29 8-62 0-52-35h-2C117-14 100 4 64 4 31 4 9-16 9-49c0-68 71-67 138-67 10-26 0-56-31-54-26 1-42 9-47 31l-32-5c8-67 160-71 144 15-5 28-9 54-15 81zM43-50c3 52 80 24 89-6 7-12 7-24 11-38-47 1-103-4-100 44zm89-161l-49-49 1-5h36c9 19 22 33 28 54h-16" id="bO"/><use transform="matrix(0.04938271604938272,0,0,0.04938271604938272,0,0)" xlink:href="#bO" id="W"/><path fill="#fff" d="M151-85c6-55-69-56-94-29H26l34-134h141l-5 27H84l-20 79c41-34 127-11 121 53C199 13 30 38 8-54l29-8C52 0 159-13 151-85" id="bP"/><use transform="matrix(0.04938271604938272,0,0,0.04938271604938272,0,0)" xlink:href="#bP" id="X"/><g id="Y"><use transform="matrix(0.04938271604938272,0,0,0.04938271604938272,0,0)" xlink:href="#bi"/><use transform="matrix(0.04938271604938272,0,0,0.04938271604938272,9.876543209876544,0)" xlink:href="#bo"/><use transform="matrix(0.04938271604938272,0,0,0.04938271604938272,18.765432098765434,0)" xlink:href="#bw"/><use transform="matrix(0.04938271604938272,0,0,0.04938271604938272,23.703703703703706,0)" xlink:href="#bh"/><use transform="matrix(0.04938271604938272,0,0,0.04938271604938272,29.58024691358025,0)" xlink:href="#bi"/><use transform="matrix(0.04938271604938272,0,0,0.04938271604938272,39.4567901234568,0)" xlink:href="#bd"/><use transform="matrix(0.04938271604938272,0,0,0.04938271604938272,43.35802469135803,0)" xlink:href="#bg"/><use transform="matrix(0.04938271604938272,0,0,0.04938271604938272,53.23456790123457,0)" xlink:href="#bo"/></g><g id="Z"><use transform="matrix(0.04938271604938272,0,0,0.04938271604938272,0,0)" xlink:href="#bm"/><use transform="matrix(0.04938271604938272,0,0,0.04938271604938272,9.876543209876544,0)" xlink:href="#bg"/></g><g id="aa"><use transform="matrix(0.04938271604938272,0,0,0.04938271604938272,0,0)" xlink:href="#bB"/><use transform="matrix(0.04938271604938272,0,0,0.04938271604938272,9.876543209876544,0)" xlink:href="#bi"/><use transform="matrix(0.04938271604938272,0,0,0.04938271604938272,19.75308641975309,0)" xlink:href="#bh"/><use transform="matrix(0.04938271604938272,0,0,0.04938271604938272,25.629629629629633,0)" xlink:href="#bg"/><use transform="matrix(0.04938271604938272,0,0,0.04938271604938272,35.50617283950618,0)" xlink:href="#bd"/></g><g id="ab"><use transform="matrix(0.04938271604938272,0,0,0.04938271604938272,0,0)" xlink:href="#bM"/><use transform="matrix(0.04938271604938272,0,0,0.04938271604938272,11.851851851851853,0)" xlink:href="#bo"/><use transform="matrix(0.04938271604938272,0,0,0.04938271604938272,20.74074074074074,0)" xlink:href="#bf"/><use transform="matrix(0.04938271604938272,0,0,0.04938271604938272,29.629629629629633,0)" xlink:href="#bh"/><use transform="matrix(0.04938271604938272,0,0,0.04938271604938272,35.50617283950617,0)" xlink:href="#bi"/><use transform="matrix(0.04938271604938272,0,0,0.04938271604938272,45.382716049382715,0)" xlink:href="#bs"/><use transform="matrix(0.04938271604938272,0,0,0.04938271604938272,54.27160493827161,0)" xlink:href="#bi"/><use transform="matrix(0.04938271604938272,0,0,0.04938271604938272,64.14814814814815,0)" xlink:href="#bh"/></g><path fill="#fff" d="M16 0l37-190h31L47 0H16zm30-211c10-23 31-35 45-54h38l-1 5-66 49H46" id="bQ"/><g id="ac"><use transform="matrix(0.04938271604938272,0,0,0.04938271604938272,0,0)" xlink:href="#bw"/><use transform="matrix(0.04938271604938272,0,0,0.04938271604938272,4.938271604938272,0)" xlink:href="#bQ"/><use transform="matrix(0.04938271604938272,0,0,0.04938271604938272,9.876543209876544,0)" xlink:href="#bw"/><use transform="matrix(0.04938271604938272,0,0,0.04938271604938272,14.814814814814817,0)" xlink:href="#bv"/><use transform="matrix(0.04938271604938272,0,0,0.04938271604938272,24.69135802469136,0)" xlink:href="#bd"/><use transform="matrix(0.04938271604938272,0,0,0.04938271604938272,28.592592592592595,0)" xlink:href="#bp"/></g><g id="ad"><use transform="matrix(0.04938271604938272,0,0,0.04938271604938272,0,0)" xlink:href="#bA"/><use transform="matrix(0.04938271604938272,0,0,0.04938271604938272,9.876543209876544,0)" xlink:href="#bg"/></g><g id="ae"><use transform="matrix(0.04938271604938272,0,0,0.04938271604938272,0,0)" xlink:href="#bc"/><use transform="matrix(0.04938271604938272,0,0,0.04938271604938272,12.790123456790125,0)" xlink:href="#bp"/><use transform="matrix(0.04938271604938272,0,0,0.04938271604938272,22.66666666666667,0)" xlink:href="#bm"/><use transform="matrix(0.04938271604938272,0,0,0.04938271604938272,32.543209876543216,0)" xlink:href="#bf"/><use transform="matrix(0.04938271604938272,0,0,0.04938271604938272,41.4320987654321,0)" xlink:href="#bp"/><use transform="matrix(0.04938271604938272,0,0,0.04938271604938272,51.308641975308646,0)" xlink:href="#bh"/><use transform="matrix(0.04938271604938272,0,0,0.04938271604938272,57.18518518518519,0)" xlink:href="#bA"/><use transform="matrix(0.04938271604938272,0,0,0.04938271604938272,67.06172839506173,0)" xlink:href="#bg"/><use transform="matrix(0.04938271604938272,0,0,0.04938271604938272,76.93827160493828,0)" xlink:href="#bh"/></g><g id="af"><use transform="matrix(0.04938271604938272,0,0,0.04938271604938272,0,0)" xlink:href="#bf"/><use transform="matrix(0.04938271604938272,0,0,0.04938271604938272,8.88888888888889,0)" xlink:href="#bp"/><use transform="matrix(0.04938271604938272,0,0,0.04938271604938272,18.765432098765434,0)" xlink:href="#bj"/></g><g id="ag"><use transform="matrix(0.04938271604938272,0,0,0.04938271604938272,0,0)" xlink:href="#bp"/><use transform="matrix(0.04938271604938272,0,0,0.04938271604938272,9.876543209876544,0)" xlink:href="#bo"/></g><g id="ah"><use transform="matrix(0.04938271604938272,0,0,0.04938271604938272,0,0)" xlink:href="#bw"/><use transform="matrix(0.04938271604938272,0,0,0.04938271604938272,4.938271604938272,0)" xlink:href="#bi"/><use transform="matrix(0.04938271604938272,0,0,0.04938271604938272,14.814814814814817,0)" xlink:href="#bh"/><use transform="matrix(0.04938271604938272,0,0,0.04938271604938272,20.69135802469136,0)" xlink:href="#bj"/><use transform="matrix(0.04938271604938272,0,0,0.04938271604938272,35.4567901234568,0)" xlink:href="#bp"/><use transform="matrix(0.04938271604938272,0,0,0.04938271604938272,45.33333333333334,0)" xlink:href="#bo"/></g><use transform="matrix(0.04938271604938272,0,0,0.04938271604938272,0,0)" xlink:href="#bi" id="ai"/><path fill="#fff" d="M31-147c31-64 166-65 159 27C184-49 159 1 87 4 10 8 2-88 31-147zM89-20c53 0 68-48 68-100 0-31-11-51-44-50-52 1-68 46-68 97 0 32 13 53 44 53zm98-238c-8 21-15 46-44 47-22 0-30-19-50-21-14 0-21 10-25 21H52c8-21 14-47 44-47 22 0 32 18 50 21 13-1 21-10 25-21h16" id="bR"/><g id="aj"><use transform="matrix(0.04938271604938272,0,0,0.04938271604938272,0,0)" xlink:href="#bf"/><use transform="matrix(0.04938271604938272,0,0,0.04938271604938272,8.88888888888889,0)" xlink:href="#bp"/><use transform="matrix(0.04938271604938272,0,0,0.04938271604938272,18.765432098765434,0)" xlink:href="#bm"/><use transform="matrix(0.04938271604938272,0,0,0.04938271604938272,28.641975308641978,0)" xlink:href="#bA"/><use transform="matrix(0.04938271604938272,0,0,0.04938271604938272,38.51851851851852,0)" xlink:href="#be"/><use transform="matrix(0.04938271604938272,0,0,0.04938271604938272,42.41975308641975,0)" xlink:href="#bt"/><use transform="matrix(0.04938271604938272,0,0,0.04938271604938272,51.308641975308646,0)" xlink:href="#bR"/><use transform="matrix(0.04938271604938272,0,0,0.04938271604938272,61.18518518518519,0)" xlink:href="#bi"/><use transform="matrix(0.04938271604938272,0,0,0.04938271604938272,71.06172839506173,0)" xlink:href="#bo"/></g><g id="ak"><use transform="matrix(0.04938271604938272,0,0,0.04938271604938272,0,0)" xlink:href="#bi"/><use transform="matrix(0.04938271604938272,0,0,0.04938271604938272,9.876543209876544,0)" xlink:href="#bo"/><use transform="matrix(0.04938271604938272,0,0,0.04938271604938272,18.765432098765434,0)" xlink:href="#bw"/><use transform="matrix(0.04938271604938272,0,0,0.04938271604938272,23.703703703703706,0)" xlink:href="#bh"/><use transform="matrix(0.04938271604938272,0,0,0.04938271604938272,29.58024691358025,0)" xlink:href="#bi"/><use transform="matrix(0.04938271604938272,0,0,0.04938271604938272,39.4567901234568,0)" xlink:href="#bd"/><use transform="matrix(0.04938271604938272,0,0,0.04938271604938272,43.35802469135803,0)" xlink:href="#bg"/><use transform="matrix(0.04938271604938272,0,0,0.04938271604938272,53.23456790123457,0)" xlink:href="#bo"/></g><g id="al"><use transform="matrix(0.04938271604938272,0,0,0.04938271604938272,0,0)" xlink:href="#bm"/><use transform="matrix(0.04938271604938272,0,0,0.04938271604938272,9.876543209876544,0)" xlink:href="#bg"/><use transform="matrix(0.04938271604938272,0,0,0.04938271604938272,19.75308641975309,0)" xlink:href="#bo"/></g><g id="am"><use transform="matrix(0.04938271604938272,0,0,0.04938271604938272,0,0)" xlink:href="#bg"/><use transform="matrix(0.04938271604938272,0,0,0.04938271604938272,9.876543209876544,0)" xlink:href="#bs"/><use transform="matrix(0.04938271604938272,0,0,0.04938271604938272,18.765432098765434,0)" xlink:href="#bg"/><use transform="matrix(0.04938271604938272,0,0,0.04938271604938272,28.641975308641978,0)" xlink:href="#bd"/><use transform="matrix(0.04938271604938272,0,0,0.04938271604938272,32.543209876543216,0)" xlink:href="#be"/><use transform="matrix(0.04938271604938272,0,0,0.04938271604938272,36.44444444444445,0)" xlink:href="#bg"/><use transform="matrix(0.04938271604938272,0,0,0.04938271604938272,46.320987654320994,0)" xlink:href="#bt"/><use transform="matrix(0.04938271604938272,0,0,0.04938271604938272,55.209876543209894,0)" xlink:href="#bR"/><use transform="matrix(0.04938271604938272,0,0,0.04938271604938272,65.08641975308643,0)" xlink:href="#bi"/><use transform="matrix(0.04938271604938272,0,0,0.04938271604938272,74.96296296296298,0)" xlink:href="#bo"/></g><g id="an"><use transform="matrix(0.04938271604938272,0,0,0.04938271604938272,0,0)" xlink:href="#bi"/><use transform="matrix(0.04938271604938272,0,0,0.04938271604938272,9.876543209876544,0)" xlink:href="#bo"/><use transform="matrix(0.04938271604938272,0,0,0.04938271604938272,18.765432098765434,0)" xlink:href="#bq"/><use transform="matrix(0.04938271604938272,0,0,0.04938271604938272,28.641975308641978,0)" xlink:href="#bi"/><use transform="matrix(0.04938271604938272,0,0,0.04938271604938272,38.51851851851852,0)" xlink:href="#bf"/><use transform="matrix(0.04938271604938272,0,0,0.04938271604938272,47.407407407407405,0)" xlink:href="#bQ"/><use transform="matrix(0.04938271604938272,0,0,0.04938271604938272,52.34567901234567,0)" xlink:href="#bL"/><use transform="matrix(0.04938271604938272,0,0,0.04938271604938272,57.28395061728394,0)" xlink:href="#be"/><use transform="matrix(0.04938271604938272,0,0,0.04938271604938272,61.185185185185176,0)" xlink:href="#bf"/><use transform="matrix(0.04938271604938272,0,0,0.04938271604938272,70.07407407407408,0)" xlink:href="#bg"/><use transform="matrix(0.04938271604938272,0,0,0.04938271604938272,79.95061728395062,0)" xlink:href="#bo"/></g><g id="ao"><use transform="matrix(0.04938271604938272,0,0,0.04938271604938272,0,0)" xlink:href="#bz"/><use transform="matrix(0.04938271604938272,0,0,0.04938271604938272,12.790123456790125,0)" xlink:href="#bi"/><use transform="matrix(0.04938271604938272,0,0,0.04938271604938272,22.66666666666667,0)" xlink:href="#bf"/><use transform="matrix(0.04938271604938272,0,0,0.04938271604938272,31.555555555555557,0)" xlink:href="#bp"/><use transform="matrix(0.04938271604938272,0,0,0.04938271604938272,41.4320987654321,0)" xlink:href="#bj"/><use transform="matrix(0.04938271604938272,0,0,0.04938271604938272,56.19753086419754,0)" xlink:href="#bi"/><use transform="matrix(0.04938271604938272,0,0,0.04938271604938272,66.07407407407408,0)" xlink:href="#bm"/><use transform="matrix(0.04938271604938272,0,0,0.04938271604938272,75.95061728395062,0)" xlink:href="#bA"/><use transform="matrix(0.04938271604938272,0,0,0.04938271604938272,85.82716049382717,0)" xlink:href="#bg"/><use transform="matrix(0.04938271604938272,0,0,0.04938271604938272,95.70370370370371,0)" xlink:href="#bh"/></g><g id="ap"><use transform="matrix(0.04938271604938272,0,0,0.04938271604938272,0,0)" xlink:href="#bp"/><use transform="matrix(0.04938271604938272,0,0,0.04938271604938272,9.876543209876544,0)" xlink:href="#bv"/></g><g id="aq"><use transform="matrix(0.04938271604938272,0,0,0.04938271604938272,0,0)" xlink:href="#bm"/><use transform="matrix(0.04938271604938272,0,0,0.04938271604938272,9.876543209876544,0)" xlink:href="#bu"/><use transform="matrix(0.04938271604938272,0,0,0.04938271604938272,19.75308641975309,0)" xlink:href="#bp"/></g><use transform="matrix(0.04938271604938272,0,0,0.04938271604938272,0,0)" xlink:href="#bp" id="ar"/><g id="as"><use transform="matrix(0.04938271604938272,0,0,0.04938271604938272,0,0)" xlink:href="#bq"/><use transform="matrix(0.04938271604938272,0,0,0.04938271604938272,9.876543209876544,0)" xlink:href="#bh"/><use transform="matrix(0.04938271604938272,0,0,0.04938271604938272,15.753086419753087,0)" xlink:href="#bp"/><use transform="matrix(0.04938271604938272,0,0,0.04938271604938272,25.629629629629633,0)" xlink:href="#bA"/><use transform="matrix(0.04938271604938272,0,0,0.04938271604938272,35.50617283950618,0)" xlink:href="#bv"/><use transform="matrix(0.04938271604938272,0,0,0.04938271604938272,45.38271604938272,0)" xlink:href="#bw"/><use transform="matrix(0.04938271604938272,0,0,0.04938271604938272,50.320987654320994,0)" xlink:href="#bp"/></g><path fill="#fff" d="M248-139C247-14 144 9 11 0l48-248c105-6 190 8 189 109zm-34 0c1-70-52-87-126-82L50-27c98 7 163-21 164-112" id="bS"/><g id="at"><use transform="matrix(0.04938271604938272,0,0,0.04938271604938272,0,0)" xlink:href="#bS"/><use transform="matrix(0.04938271604938272,0,0,0.04938271604938272,12.790123456790125,0)" xlink:href="#be"/><use transform="matrix(0.04938271604938272,0,0,0.04938271604938272,16.69135802469136,0)" xlink:href="#bh"/><use transform="matrix(0.04938271604938272,0,0,0.04938271604938272,22.567901234567906,0)" xlink:href="#bi"/><use transform="matrix(0.04938271604938272,0,0,0.04938271604938272,32.44444444444445,0)" xlink:href="#bf"/><use transform="matrix(0.04938271604938272,0,0,0.04938271604938272,41.33333333333334,0)" xlink:href="#be"/><use transform="matrix(0.04938271604938272,0,0,0.04938271604938272,45.23456790123458,0)" xlink:href="#bp"/><use transform="matrix(0.04938271604938272,0,0,0.04938271604938272,55.111111111111114,0)" xlink:href="#bm"/><use transform="matrix(0.04938271604938272,0,0,0.04938271604938272,64.98765432098767,0)" xlink:href="#bg"/><use transform="matrix(0.04938271604938272,0,0,0.04938271604938272,74.86419753086422,0)" xlink:href="#bh"/></g><g id="au"><use transform="matrix(0.04938271604938272,0,0,0.04938271604938272,0,0)" xlink:href="#bg"/><use transform="matrix(0.04938271604938272,0,0,0.04938271604938272,9.876543209876544,0)" xlink:href="#bp"/></g><g id="av"><use transform="matrix(0.04938271604938272,0,0,0.04938271604938272,0,0)" xlink:href="#bL"/><use transform="matrix(0.04938271604938272,0,0,0.04938271604938272,4.938271604938272,0)" xlink:href="#bp"/><use transform="matrix(0.04938271604938272,0,0,0.04938271604938272,14.814814814814817,0)" xlink:href="#bh"/><use transform="matrix(0.04938271604938272,0,0,0.04938271604938272,20.69135802469136,0)" xlink:href="#bj"/><use transform="matrix(0.04938271604938272,0,0,0.04938271604938272,35.4567901234568,0)" xlink:href="#bv"/><use transform="matrix(0.04938271604938272,0,0,0.04938271604938272,45.33333333333334,0)" xlink:href="#bd"/><use transform="matrix(0.04938271604938272,0,0,0.04938271604938272,49.23456790123458,0)" xlink:href="#bx"/><use transform="matrix(0.04938271604938272,0,0,0.04938271604938272,59.111111111111114,0)" xlink:href="#bh"/><use transform="matrix(0.04938271604938272,0,0,0.04938271604938272,64.98765432098766,0)" xlink:href="#be"/><use transform="matrix(0.04938271604938272,0,0,0.04938271604938272,68.8888888888889,0)" xlink:href="#bp"/></g><g id="aw"><use transform="matrix(0.04938271604938272,0,0,0.04938271604938272,0,0)" xlink:href="#bA"/><use transform="matrix(0.04938271604938272,0,0,0.04938271604938272,9.876543209876544,0)" xlink:href="#bi"/></g><g id="ax"><use transform="matrix(0.04938271604938272,0,0,0.04938271604938272,0,0)" xlink:href="#bD"/><use transform="matrix(0.04938271604938272,0,0,0.04938271604938272,11.851851851851853,0)" xlink:href="#bA"/><use transform="matrix(0.04938271604938272,0,0,0.04938271604938272,21.7283950617284,0)" xlink:href="#be"/><use transform="matrix(0.04938271604938272,0,0,0.04938271604938272,25.629629629629633,0)" xlink:href="#bf"/><use transform="matrix(0.04938271604938272,0,0,0.04938271604938272,34.51851851851852,0)" xlink:href="#be"/><use transform="matrix(0.04938271604938272,0,0,0.04938271604938272,38.41975308641975,0)" xlink:href="#bp"/><use transform="matrix(0.04938271604938272,0,0,0.04938271604938272,48.2962962962963,0)" xlink:href="#bm"/><use transform="matrix(0.04938271604938272,0,0,0.04938271604938272,58.17283950617284,0)" xlink:href="#bg"/><use transform="matrix(0.04938271604938272,0,0,0.04938271604938272,68.0493827160494,0)" xlink:href="#bh"/></g><path fill="#fff" d="M87-220l-18 92h140l-5 28H64L45 0H11l48-248h178l-5 28H87" id="bT"/><g id="ay"><use transform="matrix(0.04938271604938272,0,0,0.04938271604938272,0,0)" xlink:href="#bT"/><use transform="matrix(0.04938271604938272,0,0,0.04938271604938272,10.814814814814815,0)" xlink:href="#bp"/><use transform="matrix(0.04938271604938272,0,0,0.04938271604938272,20.69135802469136,0)" xlink:href="#bw"/><use transform="matrix(0.04938271604938272,0,0,0.04938271604938272,25.629629629629633,0)" xlink:href="#bp"/><use transform="matrix(0.04938271604938272,0,0,0.04938271604938272,35.50617283950618,0)" xlink:href="#bo"/></g><g id="az"><use transform="matrix(0.04938271604938272,0,0,0.04938271604938272,0,0)" xlink:href="#bM"/><use transform="matrix(0.04938271604938272,0,0,0.04938271604938272,11.851851851851853,0)" xlink:href="#bo"/><use transform="matrix(0.04938271604938272,0,0,0.04938271604938272,20.74074074074074,0)" xlink:href="#bf"/><use transform="matrix(0.04938271604938272,0,0,0.04938271604938272,29.629629629629633,0)" xlink:href="#bh"/><use transform="matrix(0.04938271604938272,0,0,0.04938271604938272,35.50617283950617,0)" xlink:href="#bi"/><use transform="matrix(0.04938271604938272,0,0,0.04938271604938272,45.382716049382715,0)" xlink:href="#bs"/><use transform="matrix(0.04938271604938272,0,0,0.04938271604938272,54.27160493827161,0)" xlink:href="#bi"/><use transform="matrix(0.04938271604938272,0,0,0.04938271604938272,64.14814814814815,0)" xlink:href="#bh"/></g><g id="aA"><use transform="matrix(0.04938271604938272,0,0,0.04938271604938272,0,0)" xlink:href="#bA"/><use transform="matrix(0.04938271604938272,0,0,0.04938271604938272,9.876543209876544,0)" xlink:href="#bi"/><use transform="matrix(0.04938271604938272,0,0,0.04938271604938272,19.75308641975309,0)" xlink:href="#bo"/><use transform="matrix(0.04938271604938272,0,0,0.04938271604938272,28.641975308641978,0)" xlink:href="#bf"/><use transform="matrix(0.04938271604938272,0,0,0.04938271604938272,37.53086419753087,0)" xlink:href="#bh"/><use transform="matrix(0.04938271604938272,0,0,0.04938271604938272,43.40740740740741,0)" xlink:href="#be"/><use transform="matrix(0.04938271604938272,0,0,0.04938271604938272,47.308641975308646,0)" xlink:href="#bt"/><use transform="matrix(0.04938271604938272,0,0,0.04938271604938272,56.19753086419754,0)" xlink:href="#bu"/><use transform="matrix(0.04938271604938272,0,0,0.04938271604938272,66.07407407407408,0)" xlink:href="#bp"/></g><g id="aB"><use transform="matrix(0.04938271604938272,0,0,0.04938271604938272,0,0)" xlink:href="#bA"/><use transform="matrix(0.04938271604938272,0,0,0.04938271604938272,9.876543209876544,0)" xlink:href="#bg"/></g><g id="aC"><use transform="matrix(0.04938271604938272,0,0,0.04938271604938272,0,0)" xlink:href="#bM"/><use transform="matrix(0.04938271604938272,0,0,0.04938271604938272,11.851851851851853,0)" xlink:href="#bm"/><use transform="matrix(0.04938271604938272,0,0,0.04938271604938272,21.7283950617284,0)" xlink:href="#bs"/><use transform="matrix(0.04938271604938272,0,0,0.04938271604938272,30.617283950617285,0)" xlink:href="#be"/><use transform="matrix(0.04938271604938272,0,0,0.04938271604938272,34.518518518518526,0)" xlink:href="#bg"/><use transform="matrix(0.04938271604938272,0,0,0.04938271604938272,44.39506172839507,0)" xlink:href="#bh"/></g><path fill="#fff" d="M14 0l48-248h34L48 0H14" id="bU"/><g id="aD"><use transform="matrix(0.04938271604938272,0,0,0.04938271604938272,0,0)" xlink:href="#bU"/><use transform="matrix(0.04938271604938272,0,0,0.04938271604938272,4.938271604938272,0)" xlink:href="#bh"/></g><g id="aE"><use transform="matrix(0.04938271604938272,0,0,0.04938271604938272,0,0)" xlink:href="#bq"/><use transform="matrix(0.04938271604938272,0,0,0.04938271604938272,9.876543209876544,0)" xlink:href="#bg"/><use transform="matrix(0.04938271604938272,0,0,0.04938271604938272,19.75308641975309,0)" xlink:href="#bh"/><use transform="matrix(0.04938271604938272,0,0,0.04938271604938272,25.629629629629633,0)" xlink:href="#bg"/></g><use transform="matrix(0.04938271604938272,0,0,0.04938271604938272,0,0)" xlink:href="#bg" id="aF"/><g id="aG"><use transform="matrix(0.04938271604938272,0,0,0.04938271604938272,0,0)" xlink:href="#bq"/><use transform="matrix(0.04938271604938272,0,0,0.04938271604938272,9.876543209876544,0)" xlink:href="#bx"/><use transform="matrix(0.04938271604938272,0,0,0.04938271604938272,19.75308641975309,0)" xlink:href="#bB"/><use transform="matrix(0.04938271604938272,0,0,0.04938271604938272,29.629629629629633,0)" xlink:href="#be"/><use transform="matrix(0.04938271604938272,0,0,0.04938271604938272,33.53086419753087,0)" xlink:href="#bm"/><use transform="matrix(0.04938271604938272,0,0,0.04938271604938272,43.40740740740741,0)" xlink:href="#bg"/></g><g id="aH"><use transform="matrix(0.04938271604938272,0,0,0.04938271604938272,0,0)" xlink:href="#bA"/><use transform="matrix(0.04938271604938272,0,0,0.04938271604938272,9.876543209876544,0)" xlink:href="#bp"/></g><g id="aI"><use transform="matrix(0.04938271604938272,0,0,0.04938271604938272,0,0)" xlink:href="#bq"/><use transform="matrix(0.04938271604938272,0,0,0.04938271604938272,9.876543209876544,0)" xlink:href="#bh"/><use transform="matrix(0.04938271604938272,0,0,0.04938271604938272,15.753086419753087,0)" xlink:href="#bp"/><use transform="matrix(0.04938271604938272,0,0,0.04938271604938272,25.629629629629633,0)" xlink:href="#bA"/><use transform="matrix(0.04938271604938272,0,0,0.04938271604938272,35.50617283950618,0)" xlink:href="#bv"/><use transform="matrix(0.04938271604938272,0,0,0.04938271604938272,45.38271604938272,0)" xlink:href="#bw"/><use transform="matrix(0.04938271604938272,0,0,0.04938271604938272,50.320987654320994,0)" xlink:href="#bp"/></g></defs></g></svg>